<svg id="svg" version="1.1" xmlns="http://www.w3.org/2000/svg" xmlns:xlink="http://www.w3.org/1999/xlink" width="400" height="225.0740375123396" viewBox="0, 0, 400,225.0740375123396"><g id="svgg"><path id="path0" d="M114.631 112.718 L 114.688 146.427 125.605 146.427 L 136.522 146.427 136.681 132.808 C 136.768 125.318,136.779 110.149,136.705 99.100 L 136.570 79.010 125.572 79.010 L 114.574 79.010 114.631 112.718 M159.745 79.160 C 159.418 79.486,159.574 146.016,159.902 146.289 C 160.123 146.472,163.216 146.527,170.988 146.485 L 181.767 146.427 181.824 112.718 L 181.881 79.010 170.888 79.010 C 164.842 79.010,159.827 79.077,159.745 79.160 M191.389 112.718 L 191.446 146.427 204.164 146.497 C 220.977 146.590,226.878 146.136,233.089 144.272 C 249.217 139.432,257.193 128.700,257.167 111.874 C 257.160 107.063,257.071 106.102,256.357 103.095 C 253.481 90.990,244.361 83.022,230.080 80.137 C 224.974 79.106,223.176 79.019,206.808 79.014 L 191.332 79.010 191.389 112.718 M263.421 112.718 L 263.478 146.427 274.508 146.427 L 285.537 146.427 285.594 112.718 L 285.651 79.010 274.508 79.010 L 263.364 79.010 263.421 112.718 M220.597 97.339 C 230.168 98.418,234.764 103.374,234.789 112.647 C 234.816 123.035,228.781 128.290,217.107 128.041 L 213.731 127.968 213.672 112.774 C 213.618 98.690,213.642 97.560,213.997 97.299 C 214.504 96.926,217.073 96.942,220.597 97.339 " stroke="none" fill="#0d682d" fill-rule="evenodd"></path><path id="path1" d="M0.000 112.549 L 0.000 225.098 200.000 225.098 L 400.000 225.098 400.000 112.549 L 400.000 0.000 200.000 0.000 L 0.000 0.000 0.000 112.549 M137.031 89.802 C 137.076 98.363,137.154 100.974,137.368 101.110 C 137.693 101.316,158.482 101.362,159.014 101.158 C 159.332 101.036,159.370 99.823,159.370 89.788 L 159.370 78.555 170.793 78.614 L 182.217 78.672 182.274 112.525 C 182.316 137.358,182.264 146.460,182.078 146.684 C 181.814 147.002,160.534 147.163,159.726 146.853 C 159.408 146.731,159.370 145.532,159.370 135.643 C 159.370 127.330,159.302 124.502,159.100 124.299 C 158.813 124.013,138.170 123.886,137.441 124.166 C 137.123 124.288,137.085 125.498,137.085 135.509 C 137.085 145.521,137.047 146.731,136.729 146.853 C 135.999 147.133,114.681 147.005,114.395 146.719 C 114.099 146.423,113.982 79.003,114.277 78.707 C 114.361 78.624,119.501 78.582,125.701 78.614 L 136.972 78.672 137.031 89.802 M225.314 78.905 C 246.961 81.585,258.358 93.916,257.658 113.900 C 256.990 132.973,244.249 144.659,221.947 146.655 C 217.422 147.060,192.043 147.144,191.319 146.756 C 190.877 146.520,190.595 79.148,191.034 78.709 C 191.375 78.368,222.409 78.545,225.314 78.905 M285.875 112.638 C 285.875 143.505,285.842 146.729,285.519 146.853 C 284.877 147.099,263.820 147.008,263.350 146.756 C 262.909 146.520,262.626 79.148,263.065 78.709 C 263.148 78.627,268.314 78.559,274.545 78.559 L 285.875 78.559 285.875 112.638 M214.237 97.589 C 214.145 97.687,214.069 104.538,214.069 112.812 L 214.069 127.856 216.826 127.854 C 227.808 127.847,233.334 123.701,234.336 114.716 C 235.286 106.194,231.441 100.177,223.802 98.233 C 221.538 97.657,214.614 97.191,214.237 97.589 " stroke="none" fill="#ececec" fill-rule="evenodd"></path><path id="path2" d="M136.914 112.606 L 136.972 123.692 148.284 123.750 L 159.595 123.808 159.595 112.664 L 159.595 101.519 148.225 101.519 L 136.856 101.519 136.914 112.606 " stroke="none" fill="#cb0d1d" fill-rule="evenodd"></path><path id="path3" d="M114.275 78.709 C 113.981 79.003,114.100 146.424,114.395 146.719 C 114.681 147.005,135.999 147.133,136.729 146.853 C 137.048 146.730,137.079 145.555,137.031 135.541 L 136.977 124.367 136.916 135.385 C 136.870 143.854,136.791 146.444,136.576 146.580 C 136.252 146.786,115.238 146.832,114.706 146.628 C 114.127 146.405,114.164 78.866,114.744 78.715 C 115.060 78.632,115.067 78.606,114.781 78.585 C 114.585 78.571,114.358 78.627,114.275 78.709 M120.499 78.728 C 123.448 78.764,128.209 78.764,131.079 78.728 C 133.949 78.692,131.536 78.663,125.718 78.663 C 119.899 78.663,117.551 78.692,120.499 78.728 M136.629 78.708 C 136.782 78.783,136.860 82.559,136.860 89.901 C 136.860 98.217,136.927 101.047,137.130 101.249 C 137.519 101.638,158.936 101.638,159.325 101.249 C 159.527 101.047,159.595 98.213,159.595 89.884 L 159.595 78.789 170.456 78.728 L 181.317 78.667 170.343 78.613 L 159.370 78.559 159.370 89.790 C 159.370 99.824,159.332 101.036,159.014 101.158 C 158.482 101.362,137.693 101.316,137.368 101.110 C 137.154 100.974,137.076 98.367,137.031 89.821 C 136.985 81.033,136.912 78.697,136.685 78.651 C 136.528 78.619,136.502 78.645,136.629 78.708 M181.711 78.701 C 182.290 78.872,182.328 146.405,181.749 146.628 C 181.284 146.806,160.416 146.806,159.951 146.628 C 159.633 146.506,159.595 145.322,159.595 135.583 C 159.595 128.494,159.513 124.523,159.362 124.240 C 159.120 123.787,138.082 123.535,137.388 123.976 C 137.244 124.067,141.991 124.114,147.936 124.079 C 155.837 124.033,158.830 124.086,159.058 124.276 C 159.316 124.490,159.370 126.445,159.370 135.625 C 159.370 145.531,159.408 146.731,159.726 146.853 C 160.534 147.163,181.814 147.002,182.078 146.684 C 182.613 146.039,182.305 78.687,181.767 78.632 C 181.417 78.596,181.405 78.611,181.711 78.701 M191.034 78.709 C 190.595 79.148,190.877 146.520,191.319 146.756 C 191.793 147.010,217.574 147.041,220.597 146.791 C 221.525 146.714,215.391 146.686,206.966 146.728 C 193.820 146.793,191.609 146.758,191.377 146.479 C 191.169 146.229,191.120 138.401,191.164 112.525 L 191.221 78.897 207.991 78.905 L 224.761 78.913 228.119 79.524 C 229.966 79.859,231.513 80.098,231.557 80.054 C 231.695 79.916,227.949 79.232,225.176 78.888 C 222.400 78.544,191.362 78.381,191.034 78.709 M263.065 78.709 C 262.626 79.148,262.909 146.520,263.350 146.756 C 264.383 147.309,285.875 147.036,285.875 146.470 C 285.875 146.305,285.786 146.313,285.605 146.494 C 285.292 146.807,263.909 146.888,263.421 146.578 C 263.196 146.436,263.150 139.500,263.196 112.648 L 263.253 78.897 274.170 78.781 L 285.087 78.665 274.151 78.612 C 268.136 78.583,263.148 78.627,263.065 78.709 M232.189 80.345 C 232.437 80.445,232.994 80.590,233.427 80.667 L 234.215 80.806 233.427 80.488 C 232.994 80.313,232.437 80.168,232.189 80.166 L 231.739 80.164 232.189 80.345 M239.505 82.836 C 239.938 83.073,240.394 83.268,240.518 83.268 C 240.642 83.268,240.388 83.073,239.955 82.836 C 239.522 82.599,239.066 82.405,238.942 82.405 C 238.818 82.405,239.071 82.599,239.505 82.836 M242.062 84.007 C 242.292 84.168,243.369 84.878,244.455 85.586 C 247.630 87.655,249.981 90.037,253.077 94.320 C 253.769 95.277,253.203 94.272,252.251 92.853 C 250.285 89.922,245.819 85.899,242.753 84.295 C 242.143 83.976,241.832 83.847,242.062 84.007 M214.114 97.513 C 213.908 97.718,213.856 101.376,213.897 112.876 L 213.951 127.968 214.066 112.774 L 214.181 97.580 216.545 97.455 L 218.908 97.331 216.646 97.287 C 215.133 97.257,214.294 97.332,214.114 97.513 M219.981 97.629 C 220.323 97.681,220.829 97.680,221.106 97.626 C 221.383 97.573,221.103 97.530,220.484 97.532 C 219.865 97.534,219.638 97.577,219.981 97.629 M223.523 98.143 C 224.292 98.389,224.884 98.389,224.311 98.143 C 224.063 98.037,223.658 97.952,223.410 97.956 C 223.048 97.961,223.070 97.998,223.523 98.143 M227.641 99.647 C 230.463 101.152,232.440 103.488,233.567 106.647 C 233.869 107.495,234.047 107.814,233.970 107.372 C 233.419 104.182,228.547 98.749,226.305 98.825 C 226.199 98.828,226.800 99.198,227.641 99.647 M255.956 100.844 C 255.963 101.030,256.056 101.384,256.162 101.632 L 256.356 102.082 256.368 101.632 C 256.375 101.384,256.282 101.030,256.162 100.844 C 255.968 100.544,255.945 100.544,255.956 100.844 M256.468 102.645 C 256.592 103.117,256.953 105.123,257.359 107.597 C 257.428 108.017,257.458 107.961,257.479 107.372 C 257.510 106.490,256.725 102.449,256.479 102.226 C 256.392 102.147,256.387 102.335,256.468 102.645 M234.266 109.736 C 234.334 110.602,234.426 111.353,234.471 111.405 C 234.621 111.577,234.502 109.519,234.322 108.835 C 234.214 108.426,234.192 108.780,234.266 109.736 M257.605 112.212 C 257.605 114.316,257.638 115.208,257.680 114.192 C 257.722 113.177,257.722 111.455,257.680 110.366 C 257.639 109.276,257.605 110.107,257.605 112.212 M234.364 114.463 C 234.341 114.958,234.275 115.768,234.216 116.263 L 234.109 117.164 234.340 116.263 C 234.467 115.768,234.534 114.958,234.489 114.463 L 234.406 113.562 234.364 114.463 M257.211 117.586 C 257.119 118.437,257.091 119.180,257.147 119.237 C 257.296 119.385,257.574 116.967,257.467 116.462 C 257.418 116.229,257.302 116.735,257.211 117.586 M233.693 118.218 C 233.559 118.744,233.489 119.214,233.536 119.261 C 233.584 119.309,233.737 118.922,233.877 118.402 C 234.017 117.882,234.088 117.412,234.034 117.358 C 233.980 117.304,233.827 117.691,233.693 118.218 M232.968 120.224 C 232.087 122.351,229.795 124.576,227.001 126.017 C 226.264 126.398,225.748 126.714,225.853 126.720 C 227.611 126.819,234.272 120.522,233.367 119.617 C 233.310 119.560,233.130 119.833,232.968 120.224 M256.666 120.788 C 256.516 121.501,256.432 122.123,256.478 122.169 C 256.607 122.298,257.115 120.024,257.021 119.741 C 256.975 119.603,256.815 120.075,256.666 120.788 M256.066 123.032 C 255.983 123.362,255.958 123.676,256.012 123.729 C 256.065 123.782,256.176 123.555,256.259 123.225 C 256.341 122.895,256.366 122.582,256.313 122.529 C 256.260 122.476,256.148 122.703,256.066 123.032 M255.512 124.730 C 255.373 125.127,255.299 125.492,255.347 125.540 C 255.395 125.589,255.548 125.302,255.687 124.905 C 255.826 124.507,255.900 124.142,255.851 124.094 C 255.803 124.046,255.650 124.332,255.512 124.730 M224.423 126.956 C 223.971 127.100,223.949 127.137,224.311 127.142 C 224.558 127.146,224.963 127.062,225.211 126.956 C 225.785 126.709,225.193 126.709,224.423 126.956 M220.428 127.786 C 220.644 127.843,220.999 127.843,221.216 127.786 C 221.432 127.729,221.255 127.683,220.822 127.683 C 220.388 127.683,220.211 127.729,220.428 127.786 M215.363 128.022 C 216.013 128.067,217.077 128.067,217.727 128.022 C 218.376 127.976,217.845 127.939,216.545 127.939 C 215.245 127.939,214.713 127.976,215.363 128.022 M253.512 129.282 C 253.107 130.045,252.938 130.467,253.136 130.219 C 253.576 129.669,254.420 128.065,254.321 127.966 C 254.281 127.926,253.917 128.519,253.512 129.282 M251.649 132.189 C 249.571 135.182,244.664 139.438,241.362 141.111 C 240.836 141.378,240.405 141.646,240.405 141.707 C 240.405 141.935,243.048 140.464,244.577 139.385 C 247.366 137.416,250.842 133.886,252.440 131.401 C 253.207 130.208,252.616 130.796,251.649 132.189 M238.829 142.375 C 238.272 142.673,237.918 142.917,238.042 142.917 C 238.165 142.917,238.723 142.673,239.280 142.375 C 239.837 142.076,240.191 141.832,240.068 141.832 C 239.944 141.832,239.387 142.076,238.829 142.375 M233.315 144.404 C 232.448 144.690,231.855 144.933,231.997 144.944 C 232.339 144.970,235.228 144.074,235.228 143.941 C 235.228 143.789,235.047 143.833,233.315 144.404 M228.935 145.448 C 227.887 145.685,225.963 146.016,224.658 146.184 C 223.353 146.351,222.690 146.500,223.185 146.513 C 224.586 146.551,231.626 145.333,231.626 145.053 C 231.626 144.897,230.897 145.004,228.935 145.448 " stroke="none" fill="#8ab49c" fill-rule="evenodd"></path><path id="path4" d="M114.728 78.745 C 114.162 78.854,114.141 146.411,114.706 146.628 C 115.171 146.806,136.039 146.806,136.504 146.628 C 136.822 146.506,136.860 145.315,136.860 135.501 C 136.860 126.118,136.908 124.463,137.192 124.180 C 137.477 123.894,137.099 123.363,136.809 123.642 C 136.781 123.669,136.705 128.807,136.640 135.059 L 136.522 146.427 125.605 146.427 L 114.688 146.427 114.631 112.718 L 114.574 79.010 125.604 79.010 L 136.635 79.010 136.635 89.908 C 136.635 100.681,136.672 101.519,137.154 101.519 C 137.319 101.519,137.311 101.430,137.130 101.249 C 136.927 101.047,136.860 98.213,136.860 89.882 C 136.860 83.778,136.784 78.783,136.691 78.782 C 132.137 78.723,114.995 78.693,114.728 78.745 M170.456 78.730 C 164.482 78.762,159.595 78.864,159.595 78.955 C 159.595 79.047,164.609 79.095,170.738 79.062 L 181.881 79.001 181.824 112.714 L 181.767 146.427 170.988 146.485 C 163.216 146.527,160.123 146.472,159.902 146.289 C 159.711 146.130,159.595 146.121,159.595 146.262 C 159.595 146.388,159.755 146.552,159.951 146.628 C 160.416 146.806,181.284 146.806,181.749 146.628 C 182.328 146.405,182.290 78.876,181.711 78.754 C 181.494 78.709,176.429 78.698,170.456 78.730 M274.170 78.781 L 263.253 78.897 263.196 112.648 C 263.150 139.500,263.196 146.436,263.421 146.578 C 263.909 146.888,285.292 146.807,285.605 146.494 C 285.813 146.286,285.875 138.466,285.875 112.662 C 285.875 79.480,285.853 78.338,285.211 78.612 C 285.143 78.642,280.174 78.718,274.170 78.781 M191.272 78.922 C 190.918 79.275,191.081 146.236,191.436 146.531 C 191.980 146.982,221.004 146.712,224.515 146.223 C 228.187 145.712,233.684 144.513,232.357 144.513 C 232.222 144.513,231.268 144.713,230.237 144.957 C 224.600 146.290,219.647 146.582,204.164 146.497 L 191.446 146.427 191.389 112.707 L 191.332 78.988 207.934 79.093 C 217.065 79.151,225.093 79.251,225.774 79.314 L 227.012 79.429 225.999 79.193 C 224.833 78.921,191.532 78.661,191.272 78.922 M285.594 112.718 L 285.537 146.427 274.508 146.427 L 263.478 146.427 263.421 112.718 L 263.364 79.010 274.508 79.010 L 285.651 79.010 285.594 112.718 M229.600 80.037 C 232.352 80.607,232.671 80.654,232.483 80.466 C 232.329 80.312,227.902 79.454,227.398 79.480 C 227.185 79.491,228.177 79.742,229.600 80.037 M233.990 81.038 C 234.733 81.281,235.442 81.474,235.566 81.467 C 235.927 81.446,234.273 80.880,233.419 80.732 C 232.990 80.657,233.247 80.795,233.990 81.038 M236.128 81.673 C 236.314 81.788,236.719 81.949,237.029 82.032 C 237.420 82.137,237.488 82.119,237.254 81.974 C 237.068 81.859,236.663 81.697,236.353 81.615 C 235.962 81.510,235.894 81.528,236.128 81.673 M238.492 82.611 C 239.677 83.160,240.057 83.160,239.055 82.611 C 238.621 82.374,238.115 82.183,237.929 82.187 C 237.743 82.191,237.997 82.382,238.492 82.611 M239.955 83.178 C 239.955 83.234,240.586 83.599,241.358 83.988 C 246.884 86.777,251.713 91.656,254.192 96.953 C 254.562 97.743,254.912 98.343,254.970 98.284 C 255.533 97.722,251.005 91.177,248.280 88.614 C 245.858 86.335,239.955 82.481,239.955 83.178 M213.997 97.299 C 213.490 97.671,213.511 127.886,214.018 127.989 C 214.176 128.021,214.201 127.996,214.074 127.933 C 213.698 127.746,213.760 97.817,214.137 97.504 C 214.299 97.370,215.387 97.227,216.557 97.186 L 218.683 97.111 216.531 97.064 C 215.097 97.033,214.252 97.111,213.997 97.299 M219.305 97.404 C 219.647 97.456,220.154 97.454,220.431 97.401 C 220.708 97.348,220.428 97.305,219.809 97.307 C 219.190 97.309,218.963 97.352,219.305 97.404 M221.516 97.551 C 221.567 97.597,222.116 97.694,222.735 97.765 C 223.494 97.853,223.677 97.833,223.298 97.704 C 222.735 97.513,221.338 97.393,221.516 97.551 M224.311 98.143 C 224.558 98.249,224.913 98.336,225.098 98.336 C 225.311 98.336,225.270 98.265,224.986 98.143 C 224.738 98.037,224.384 97.949,224.198 97.949 C 223.985 97.949,224.027 98.021,224.311 98.143 M227.284 99.257 C 229.534 100.376,231.445 102.094,232.583 104.020 C 233.047 104.805,233.427 105.340,233.427 105.207 C 233.427 103.544,228.609 99.185,225.999 98.488 C 225.689 98.405,226.268 98.751,227.284 99.257 M255.184 99.043 C 255.440 100.057,255.966 101.296,255.816 100.531 C 255.745 100.174,255.542 99.566,255.364 99.181 C 255.121 98.654,255.077 98.620,255.184 99.043 M256.200 102.307 C 256.197 102.555,256.281 102.960,256.387 103.208 C 256.634 103.781,256.634 103.189,256.387 102.420 C 256.242 101.967,256.206 101.945,256.200 102.307 M256.666 104.221 C 256.666 104.530,256.743 105.087,256.837 105.459 C 256.991 106.061,257.009 106.073,257.009 105.571 C 257.009 105.262,256.932 104.705,256.837 104.333 C 256.684 103.731,256.666 103.719,256.666 104.221 M257.175 112.212 C 257.175 115.431,257.242 117.558,257.324 116.939 C 257.520 115.462,257.522 108.668,257.327 107.372 C 257.243 106.815,257.175 108.993,257.175 112.212 M233.885 106.866 C 233.890 106.958,234.040 107.642,234.219 108.385 C 234.659 110.204,234.651 115.141,234.207 117.027 C 234.020 117.819,233.911 118.510,233.963 118.563 C 234.674 119.273,235.043 110.992,234.423 108.264 C 234.121 106.937,233.856 106.247,233.885 106.866 M256.725 119.302 C 256.637 119.937,256.617 120.507,256.679 120.569 C 256.741 120.631,256.863 120.162,256.950 119.527 C 257.037 118.892,257.058 118.322,256.996 118.260 C 256.934 118.199,256.812 118.667,256.725 119.302 M232.601 121.244 C 232.208 121.912,231.979 122.401,232.092 122.332 C 232.356 122.168,233.508 120.206,233.398 120.106 C 233.352 120.064,232.993 120.576,232.601 121.244 M256.049 122.394 C 255.826 123.232,255.591 124.069,255.529 124.254 C 255.466 124.440,255.486 124.529,255.573 124.451 C 255.784 124.263,256.676 121.091,256.552 120.968 C 256.499 120.915,256.273 121.557,256.049 122.394 M230.480 123.882 C 229.788 124.534,228.554 125.415,227.737 125.838 C 226.920 126.262,226.286 126.642,226.328 126.684 C 226.567 126.923,229.349 125.180,230.552 124.037 C 231.328 123.298,231.913 122.695,231.851 122.695 C 231.790 122.695,231.173 123.229,230.480 123.882 M254.621 126.488 C 252.559 131.531,248.595 136.194,243.537 139.526 C 242.474 140.226,241.411 140.927,241.174 141.084 C 240.937 141.240,241.097 141.201,241.531 140.997 C 244.485 139.603,249.550 135.179,251.729 132.088 C 253.352 129.786,255.728 125.096,255.425 124.793 C 255.382 124.749,255.020 125.512,254.621 126.488 M223.298 127.406 L 222.735 127.586 223.298 127.593 C 223.607 127.596,224.063 127.512,224.311 127.406 L 224.761 127.212 224.311 127.219 C 224.063 127.223,223.607 127.307,223.298 127.406 M220.146 127.856 L 218.683 128.003 220.034 128.020 C 220.777 128.029,221.638 127.955,221.947 127.856 C 222.623 127.640,222.294 127.640,220.146 127.856 M235.608 143.429 C 234.888 143.680,234.339 143.924,234.387 143.972 C 234.489 144.075,237.254 143.165,237.254 143.029 C 237.254 142.883,236.997 142.945,235.608 143.429 M232.977 144.288 C 232.529 144.577,233.092 144.577,233.765 144.288 L 234.215 144.095 233.765 144.082 C 233.517 144.075,233.163 144.168,232.977 144.288 " stroke="none" fill="#74a484" fill-rule="evenodd"></path></g></svg>