<?xml version="1.0" encoding="utf-8"?>
<!-- Generator: Adobe Illustrator 25.0.1, SVG Export Plug-In . SVG Version: 6.00 Build 0)  -->
<svg version="1.0" id="katman_1" xmlns="http://www.w3.org/2000/svg" xmlns:xlink="http://www.w3.org/1999/xlink" x="0px" y="0px"
	 viewBox="0 0 560 400" style="enable-background:new 0 0 560 400;" xml:space="preserve">
<style type="text/css">
	.st0{fill:#FFFFFF;}
	.st1{fill:#2D6CC0;}
	.st2{fill:#231F20;}
	.st3{fill:#F1AB00;}
	.st4{fill:none;stroke:#003066;stroke-width:2.1579;stroke-miterlimit:33.199;}
	.st5{fill:#BB8900;}
	.st6{fill:#003066;}
</style>
<g transform="matrix(3.3199 0 0 -3.3199 -1036.44 906.241)">
	<g>
		<path class="st0" d="M406.7,227.5v-8.7l-5.2-4.8h-6.3v-9h15.4v4.1h9v-7.7l-4.9-5.2h-23.4l-4.9,5.2v12.5h-7.7l-5.3,4.8v27.9l-3,5.5
			h14.7l-2.8-5.6v-23.9h4v8.4l4.8,5.3h6.6v10.3l-3.2,5.5h14.7l-2.7-5.6v-10.2h8.1l4.9-5.2v-7.3h-9v3.6L406.7,227.5z"/>
		<path class="st0" d="M406.7,227.5v-8.7l-5.2-4.8h-6.3v-9h15.4v4.1h9v-7.7l-4.9-5.2h-23.4l-4.9,5.2v12.5h-7.7l-5.3,4.8v27.9l-3,5.5
			h14.7l-2.8-5.6v-23.9h4v8.4l4.8,5.3h6.6v10.3l-3.2,5.5h14.7l-2.7-5.6v-10.2h8.1l4.9-5.2v-7.3h-9v3.6L406.7,227.5z"/>
		<path class="st1" d="M368.7,253.4l3.7-7v-28.1l6.1-5.5h6.9V201l5.6-6h24.4l5.5,5.9v9.4h-11.4v-4h-13v6.6h5.5l5.9,5.5v8.1h1.6v-3.6
			h11.4v8.9l-5.6,6h-7.4v8.7l3.4,7.1h-18.5l4-7v-8.8h-5.9l-5.5-6.1v-7.7h-1.7v22.4l3.5,7.1H368.7L368.7,253.4z M394.8,252.2h14.7
			l-2.7-5.6v-10.2h8.1l4.9-5.2v-7.3h-9v3.6h-4v-8.7l-5.2-4.8h-6.3v-9h15.4v4.1h9v-7.7l-4.9-5.2h-23.4l-4.9,5.2v12.5h-7.7l-5.3,4.8
			v27.9l-3,5.5h14.7l-2.8-5.6v-23.9h4v8.4l4.8,5.3h6.6v10.3L394.8,252.2z M391.9,235.2l-4.2-4.5l0.2-28.8l4.2-4.5h22.3l4.1,4.5v6.1
			h-6.6v-4.1h-17.8v24.9h3.9v6.6L391.9,235.2z M406.7,235.2v-6.6h5.2v-3.6v0h6.6v5.7l-4.1,4.5H406.7z M395.3,227.5v-4.8h2.7v4.8
			H395.3z M396.1,226.3h1v-2.4h-1V226.3z"/>
		<path class="st2" d="M411.9,225.1h6.6v0L411.9,225.1L411.9,225.1z"/>
		<path class="st3" d="M372.5,251l2.3-4.3v-27.5l4.5-4.2h7.3v6.4h-5.3v25.2l2.1,4.3H372.5z M396.7,251l2.4-4.3v-25.2h-3.9v-6.4h5.8
			l4.5,4.2v27.5l2.1,4.3L396.7,251L396.7,251z M360.2,191.7l-0.1-0.2c-1.4-4.3-2.8-8.5-4.1-12.8c0-0.1-0.1-0.2-0.1-0.2
			c0.1,0,0.2-0.1,0.3-0.1c0.7-0.2,1.4-0.4,2-0.6c0.1,0,0.2-0.1,0.3-0.1c0,0,0,0,0,0c0,0,0,0,0,0c0,0.1,0,0.2,0.1,0.2
			c0.5,1.7,1,3.3,1.5,5c0.5-0.1,0.9-0.3,1.4-0.4c-0.2-1.8-0.3-3.5-0.5-5.3c0-0.1,0-0.1,0-0.2c0.1,0,0.2,0,0.2-0.1
			c0.7-0.2,1.5-0.4,2.2-0.6c0.1,0,0.2-0.1,0.4-0.1v0c0,0,0,0,0,0c0,0.1,0,0.2,0,0.3c0,2,0.1,4,0.1,5.9c0.5,0.3,1,0.5,1.5,0.8
			c0,0,0.1,0,0.1,0.1c0,0,0,0.1,0,0.1c0.4,1.5,0.8,3.1,1.2,4.6c0,0,0,0.1,0,0.1c0,0,0,0.1,0,0.1c-0.3,0.6-0.7,1.2-1,1.8
			c0,0,0,0.1-0.1,0.1c0,0-0.1,0-0.1,0c-1.7,0.5-3.4,1-5.1,1.5C360.4,191.7,360.4,191.7,360.2,191.7
			C360.3,191.7,360.3,191.7,360.2,191.7C360.3,191.7,360.2,191.7,360.2,191.7L360.2,191.7z M432.7,191.7c-0.1,0-0.2-0.1-0.3-0.1
			c-1.5-0.5-3.1-0.9-4.6-1.4c-0.1,0-0.2,0-0.3-0.1c0-0.1,0-0.2,0.1-0.3c1.2-4.3,2.4-8.6,3.6-12.9c0-0.1,0-0.2,0.1-0.2c0,0,0,0,0,0
			c0,0,0,0,0,0c0.1,0,0.2,0.1,0.3,0.1c1.7,0.5,3.5,1,5.2,1.6c0.1,0,0.2,0.1,0.3,0.1c0,0.1-0.1,0.2-0.1,0.2c-0.2,0.7-0.5,1.4-0.7,2.2
			c0,0.1-0.1,0.2-0.1,0.2c0,0,0,0,0,0c0,0,0,0,0,0c-0.1,0-0.2-0.1-0.3-0.1c-0.8-0.2-1.5-0.5-2.3-0.7c-0.3,0.9-0.6,1.9-0.8,2.8
			c0.6,0.2,1.2,0.4,1.9,0.6c0.1,0,0.2,0.1,0.3,0.1c0,0.1-0.1,0.2-0.1,0.2c-0.2,0.6-0.4,1.3-0.6,1.9c0,0.1-0.1,0.2-0.1,0.2
			c0,0,0,0,0,0c0,0,0,0,0,0c-0.1,0-0.2-0.1-0.3-0.1c-0.6-0.2-1.2-0.4-1.8-0.6c-0.3,0.9-0.5,1.8-0.8,2.7c0.7,0.2,1.4,0.4,2.1,0.7
			c0.1,0,0.2,0.1,0.3,0.1c0,0.1-0.1,0.2-0.1,0.2c-0.2,0.7-0.5,1.5-0.7,2.2C432.8,191.5,432.8,191.6,432.7,191.7
			C432.8,191.7,432.7,191.7,432.7,191.7C432.7,191.7,432.7,191.7,432.7,191.7L432.7,191.7z M423.2,189.1c0,0-0.1,0-0.1,0
			c-1.7-0.4-3.4-0.7-5.1-1c-0.1,0-0.2,0-0.3,0c0-0.1,0-0.2,0-0.3c0.8-4.4,1.6-8.8,2.4-13.2c0-0.1,0-0.2,0-0.3c0,0,0,0,0,0
			c0,0,0,0,0,0c0.1,0,0.2,0,0.3,0.1c1.9,0.4,3.9,0.8,5.8,1.2c0.1,0,0.1,0,0.2,0c0,0,0,0.1,0.1,0.1c0.4,0.8,0.7,1.6,1.1,2.5
			c0,0,0,0.1,0,0.1c0,0,0,0.1,0,0.1l-2.2,8.8c0,0,0,0.1,0,0.1c0,0,0,0-0.1,0.1c-0.7,0.6-1.4,1.2-2,1.7
			C423.4,189,423.3,189,423.2,189.1C423.3,189.1,423.3,189.1,423.2,189.1C423.3,189.1,423.3,189.1,423.2,189.1L423.2,189.1z
			 M369.8,189.1c0-0.1,0-0.2-0.1-0.3c-1-4.4-2-8.7-3-13.1c0-0.1,0-0.2-0.1-0.3c0.1,0,0.2,0,0.3-0.1c0.7-0.2,1.4-0.3,2.2-0.5
			c0.1,0,0.2,0,0.3-0.1c0,0,0,0,0,0c0,0,0,0,0,0c0,0.1,0,0.2,0.1,0.3c0.9,4.4,1.8,8.7,2.8,13.1c0,0.1,0,0.2,0.1,0.3
			c-0.1,0-0.2,0-0.3,0.1c-0.6,0.1-1.3,0.3-1.9,0.4C370.1,189,370,189,369.8,189.1C369.9,189.1,369.9,189.1,369.8,189.1
			C369.9,189.1,369.8,189.1,369.8,189.1L369.8,189.1z M361.9,188.6c0.8-0.2,1.6-0.5,2.4-0.7c-0.3-1.1-0.6-2.2-0.9-3.3
			c-0.8,0.2-1.6,0.5-2.4,0.7C361.2,186.4,361.6,187.5,361.9,188.6L361.9,188.6z M374.5,188.1c0-0.1,0-0.2,0-0.3
			c-0.2-4.5-0.4-9-0.5-13.5c0-0.1,0-0.1,0-0.2c0.1,0,0.2,0,0.3,0c1.4-0.2,2.9-0.5,4.3-0.7c0.1,0,0.2,0,0.2,0c0,0,0,0,0,0l0,0
			c0,0.1,0,0.1,0.1,0.2c1.4,4.3,2.8,8.7,4,13c0,0.1,0.1,0.2,0.1,0.3c-0.1,0-0.2,0-0.3,0c-0.8,0.1-1.5,0.2-2.3,0.3
			c-0.1,0-0.1,0-0.2,0c0,0,0,0,0,0c0,0,0,0,0,0c0-0.1,0-0.1-0.1-0.2c-1-3.3-2-6.5-3-9.8c-0.1,0-0.1,0-0.2,0c0,3.4,0.1,6.8,0.3,10.2
			c0,0.1,0,0.2,0,0.2c-0.1,0-0.2,0-0.2,0c-0.7,0.1-1.4,0.2-2.1,0.4C374.8,188,374.7,188,374.5,188.1
			C374.6,188.1,374.6,188.1,374.5,188.1C374.6,188.1,374.6,188.1,374.5,188.1L374.5,188.1z M415.1,187.5c-0.1,0-0.2,0-0.3,0
			c-0.6-0.1-1.3-0.2-2-0.3c-0.1,0-0.2,0-0.3,0c0-0.1,0-0.2,0-0.3c0.6-4.4,1.2-8.9,1.8-13.3c0-0.1,0-0.2,0-0.3c0,0,0,0,0,0
			c0,0,0,0,0,0c0.1,0,0.2,0,0.3,0c0.7,0.1,1.5,0.2,2.2,0.3c0.1,0,0.2,0,0.3,0c0,0.1,0,0.2,0,0.3c-0.7,4.4-1.4,8.8-2.1,13.2
			C415.2,187.3,415.2,187.4,415.1,187.5C415.1,187.5,415.1,187.5,415.1,187.5C415.1,187.5,415.1,187.5,415.1,187.5L415.1,187.5z
			 M408.1,186.6c0,0-0.1,0-0.1,0c-1.1-0.1-2.2-0.2-3.3-0.3c0,0-0.1,0-0.1,0c0,0,0-0.1-0.1-0.1c-0.5-0.7-1-1.4-1.4-2c0,0,0,0-0.1-0.1
			c0,0,0-0.1,0-0.1c0.1-1.3,0.1-2.5,0.2-3.8l0-0.1c0,0,0,0,0-0.1c0.2-0.4,0.5-0.8,0.7-1.2c0,0,0-0.1,0.1-0.1c0,0,0.1,0,0.1,0
			c1.3-0.3,2.7-0.7,4-1c0.1-0.9,0.2-1.7,0.2-2.6c-0.8-0.1-1.6-0.1-2.3-0.2c0,0.3,0,0.5-0.1,0.8c0,0.1,0,0.2,0,0.3l0,0v0l-0.3,0
			c-0.6,0-1.3-0.1-1.9-0.1c-0.1,0-0.2,0-0.3,0c0-0.1,0-0.2,0-0.3c0-0.4,0-0.7,0.1-1.1c0,0,0-0.1,0-0.1c0,0,0,0,0.1-0.1
			c0.6-0.6,1.2-1.2,1.8-1.8c0,0,0.1-0.1,0.1-0.1c0,0,0,0,0,0l0,0c0,0,0.1,0,0.1,0c1.3,0.1,2.6,0.2,3.8,0.3c0,0,0.1,0,0.1,0
			c0,0,0.1,0.1,0.1,0.1c0.5,0.7,1,1.4,1.5,2.1c0,0,0,0.1,0.1,0.1c0,0,0,0.1,0,0.1c-0.2,1.3-0.3,2.6-0.5,3.9c0,0,0,0.1,0,0.1
			c0,0,0,0-0.1,0.1c-0.4,0.3-0.7,0.7-1.1,1c0,0,0,0-0.1,0.1c0,0-0.1,0-0.1,0c-1.3,0.2-2.5,0.4-3.7,0.7c-0.1,0.9-0.1,1.9-0.2,2.8
			c0.7,0.1,1.5,0.1,2.2,0.2c0-0.3,0.1-0.6,0.1-0.9c0-0.1,0-0.2,0-0.3c0,0,0,0,0.1,0c0,0,0,0,0,0c0.1,0,0.2,0,0.3,0
			c0.6,0.1,1.3,0.1,1.9,0.2c0.1,0,0.2,0,0.3,0c0,0.1,0,0.2,0,0.3c0,0.4-0.1,0.8-0.1,1.2c0,0,0,0.1,0,0.1c0,0,0,0-0.1,0.1
			c-0.6,0.6-1.3,1.2-1.9,1.8C408.3,186.5,408.2,186.5,408.1,186.6C408.2,186.6,408.2,186.6,408.1,186.6
			C408.1,186.6,408.1,186.6,408.1,186.6L408.1,186.6z M385.3,186.5c0-0.1,0-0.2,0-0.3c-0.4-4.4-0.9-8.9-1.3-13.3c0-0.1,0-0.2,0-0.3
			c0.1,0,0.2,0,0.3,0c1.8-0.2,3.6-0.3,5.4-0.4c0.1,0,0.2,0,0.3,0c0,0,0,0,0,0c0,0,0,0,0,0c0,0.1,0,0.2,0,0.3c0,0.8,0.1,1.5,0.1,2.3
			c0,0.1,0,0.2,0,0.3c-0.1,0-0.2,0-0.3,0c-0.8,0-1.6,0.1-2.4,0.2c0.1,1,0.1,1.9,0.2,2.9c0.6,0,1.3-0.1,1.9-0.1c0.1,0,0.2,0,0.3,0v0
			l0.1,0c0,0.1,0,0.2,0,0.3c0,0.7,0.1,1.4,0.1,2c0,0.1,0,0.2,0,0.3c-0.1,0-0.2,0-0.3,0c-0.6,0-1.3,0.1-1.9,0.1
			c0.1,0.9,0.1,1.9,0.2,2.8c0.7-0.1,1.4-0.1,2.1-0.1c0.1,0,0.2,0,0.3,0v0l0.1,0c0,0.1,0,0.2,0,0.3c0,0.8,0.1,1.5,0.1,2.3
			c0,0.1,0,0.2,0,0.3c-0.1,0-0.2,0-0.3,0c-1.6,0.1-3.2,0.2-4.7,0.3C385.5,186.5,385.4,186.5,385.3,186.5
			C385.3,186.5,385.3,186.5,385.3,186.5C385.3,186.5,385.3,186.5,385.3,186.5L385.3,186.5z M393.1,186c0-0.1,0-0.2,0-0.3
			c-0.1-4.5-0.3-8.9-0.4-13.4c0-0.1,0-0.2,0-0.3c0.1,0,0.2,0,0.3,0c0.7,0,1.4,0,2.1,0h0.1c0.1,0,0.2,0,0.2,0h0c0,0.1,0,0.2,0,0.3
			c0,1.7,0,3.5,0,5.2c0.5,0,1,0,1.4,0c0.3-1.7,0.7-3.5,1-5.2c0-0.1,0-0.1,0-0.2h0.1c0.1,0,0.1,0,0.2,0h0c0.7,0,1.5,0,2.2,0
			c0.1,0,0.2,0,0.4,0c0,0.1-0.1,0.2-0.1,0.3c-0.5,1.9-1,3.8-1.5,5.7c0.4,0.4,0.8,0.8,1.2,1.2c0,0,0.1,0.1,0.1,0.1c0,0,0,0.1,0,0.1
			c0,1.6-0.1,3.1-0.1,4.7c0,0,0,0.1,0,0.1c0,0,0,0-0.1,0.1c-0.5,0.5-1,1-1.5,1.5c0,0-0.1,0.1-0.1,0.1c0,0,0,0,0,0c0,0,0,0,0,0
			c0,0-0.1,0-0.1,0c-0.9,0-1.7,0-2.6,0c0,0,0,0,0,0c-0.9,0-1.8,0-2.6,0C393.3,186,393.2,186,393.1,186
			C393.1,186,393.1,186,393.1,186C393.1,186,393.1,186,393.1,186L393.1,186z M423.1,185.9c0.6-2.5,1.2-5.1,1.7-7.6
			c-0.8-0.2-1.5-0.3-2.3-0.5c-0.5,2.6-1.1,5.1-1.6,7.7C421.7,185.6,422.4,185.7,423.1,185.9L423.1,185.9z M398,183.5
			c0-1.1,0-2.3,0-3.4c-0.8,0-1.7,0-2.5,0c0,1.1,0,2.3,0,3.4C396.3,183.5,397.1,183.5,398,183.5z"/>
	</g>
	<path class="st4" d="M360.3,191.7c0-0.1-0.1-0.2-0.1-0.2c-1.4-4.3-2.8-8.5-4.1-12.8c0-0.1-0.1-0.2-0.1-0.2c0.1,0,0.2-0.1,0.3-0.1
		c0.7-0.2,1.4-0.4,2-0.6c0.1,0,0.2-0.1,0.3-0.1c0,0.1,0,0.2,0.1,0.2c0.5,1.7,1,3.3,1.5,5c0.5-0.2,0.9-0.3,1.4-0.4
		c-0.2-1.8-0.3-3.5-0.5-5.3c0-0.1,0-0.1,0-0.2c0.1,0,0.2,0,0.2-0.1c0.7-0.2,1.5-0.4,2.2-0.6c0.1,0,0.2-0.1,0.4-0.1
		c0,0.1,0,0.2,0,0.3c0,2,0.1,4,0.1,5.9c0.5,0.3,1,0.5,1.5,0.8c0,0,0.1,0,0.1,0.1c0,0,0,0.1,0,0.1c0.4,1.5,0.8,3.1,1.2,4.6
		c0,0,0,0.1,0,0.1c0,0,0,0.1,0,0.1c-0.3,0.6-0.7,1.2-1,1.8c0,0,0,0.1-0.1,0.1c0,0-0.1,0-0.1,0C363.9,190.6,360.4,191.7,360.3,191.7
		L360.3,191.7z M432.8,191.7c-0.1,0-0.2-0.1-0.3-0.1c-1.5-0.5-3.1-0.9-4.6-1.4c-0.1,0-0.2,0-0.3-0.1c0-0.1,0-0.2,0.1-0.3
		c1.2-4.3,2.4-8.6,3.6-12.9c0-0.1,0-0.2,0.1-0.2c0.1,0,0.2,0.1,0.3,0.1c1.7,0.5,3.5,1,5.2,1.6c0.1,0,0.2,0.1,0.3,0.1
		c0,0.1-0.1,0.2-0.1,0.2c-0.2,0.7-0.5,1.4-0.7,2.2c0,0.1-0.1,0.2-0.1,0.2c-0.1,0-0.2-0.1-0.3-0.1c-0.8-0.3-1.6-0.5-2.3-0.7
		c-0.3,0.9-0.6,1.9-0.8,2.8c0.6,0.2,1.2,0.4,1.9,0.6c0.1,0,0.2,0.1,0.3,0.1c0,0.1-0.1,0.2-0.1,0.2c-0.2,0.6-0.4,1.3-0.6,1.9
		c0,0.1-0.1,0.2-0.1,0.2c-0.1,0-0.2-0.1-0.3-0.1c-0.6-0.2-1.2-0.4-1.8-0.6c-0.3,0.9-0.5,1.8-0.8,2.7c0.7,0.2,1.4,0.4,2.1,0.7
		c0.1,0,0.2,0.1,0.3,0.1c0,0.1-0.1,0.2-0.1,0.2c-0.2,0.7-0.5,1.5-0.7,2.2C432.8,191.6,432.8,191.6,432.8,191.7L432.8,191.7z
		 M423.3,189.1c0,0-0.1,0-0.1,0c-1.7-0.4-3.4-0.7-5.1-1c-0.1,0-0.2,0-0.3,0c0-0.1,0-0.2,0-0.3c0.8-4.4,1.6-8.8,2.4-13.2
		c0-0.1,0-0.2,0-0.3c0.1,0,0.2,0,0.3,0.1c1.9,0.4,3.9,0.8,5.8,1.2c0.1,0,0.1,0,0.2,0c0,0,0,0.1,0.1,0.1c0.4,0.8,0.7,1.6,1.1,2.5
		c0,0,0,0.1,0,0.1c0,0,0,0.1,0,0.1l-2.2,8.8c0,0,0,0.1,0,0.1c0,0,0,0-0.1,0.1c-0.7,0.6-1.4,1.2-2,1.7
		C423.4,189,423.3,189,423.3,189.1L423.3,189.1z M369.9,189.1c0-0.1,0-0.2-0.1-0.3c-1-4.4-2-8.7-3-13.1c0-0.1,0-0.2-0.1-0.3
		c0.1,0,0.2,0,0.3-0.1c0.7-0.2,1.4-0.3,2.2-0.5c0.1,0,0.2,0,0.3-0.1c0,0.1,0,0.2,0.1,0.3c0.9,4.4,1.8,8.7,2.8,13.1
		c0,0.1,0,0.2,0.1,0.3c-0.1,0-0.2,0-0.3,0.1c-0.6,0.1-1.3,0.3-1.9,0.4C370,189,370,189,369.9,189.1L369.9,189.1z M361.9,188.6
		c0.8-0.2,1.6-0.5,2.4-0.7c-0.3-1.1-0.6-2.2-0.9-3.3c-0.8,0.2-1.6,0.5-2.5,0.7C361.2,186.4,361.6,187.5,361.9,188.6z M374.6,188.1
		c0-0.1,0-0.2,0-0.3c-0.2-4.5-0.4-9-0.5-13.5c0-0.1,0-0.1,0-0.2c0.1,0,0.2,0,0.3,0c1.4-0.2,2.9-0.5,4.3-0.7c0.1,0,0.2,0,0.2,0
		c0,0.1,0,0.1,0.1,0.2c1.4,4.3,2.8,8.7,4,13c0,0.1,0.1,0.2,0.1,0.3c-0.1,0-0.2,0-0.3,0c-0.8,0.1-1.5,0.2-2.3,0.3c-0.1,0-0.1,0-0.2,0
		c0-0.1,0-0.1-0.1-0.2c-1-3.3-2-6.5-3-9.8c-0.1,0-0.2,0-0.3,0c0,3.4,0.1,6.8,0.3,10.2c0,0.1,0,0.2,0,0.2c-0.1,0-0.2,0-0.2,0
		c-0.7,0.1-1.4,0.2-2.1,0.4C374.8,188,374.7,188,374.6,188.1L374.6,188.1z M415.2,187.5c-0.1,0-0.2,0-0.3,0c-0.6-0.1-1.3-0.2-2-0.3
		c-0.1,0-0.2,0-0.3,0c0-0.1,0-0.2,0-0.3c0.6-4.4,1.2-8.9,1.8-13.3c0-0.1,0-0.2,0-0.3c0.1,0,0.2,0,0.3,0c0.7,0.1,1.5,0.2,2.2,0.3
		c0.1,0,0.2,0,0.3,0c0,0.1,0,0.2,0,0.3c-0.7,4.4-1.4,8.8-2.1,13.2C415.2,187.3,415.2,187.4,415.2,187.5L415.2,187.5z M408.2,186.6
		c0,0-0.1,0-0.1,0c-1.1-0.1-2.2-0.2-3.3-0.3c0,0-0.1,0-0.1,0c0,0,0-0.1-0.1-0.1c-0.5-0.7-1-1.4-1.4-2c0,0,0,0-0.1-0.1
		c0,0,0-0.1,0-0.1c0.1-1.3,0.1-2.5,0.2-3.8l0-0.1c0,0,0,0,0-0.1c0.2-0.4,0.5-0.8,0.7-1.2c0,0,0-0.1,0.1-0.1c0,0,0.1,0,0.1,0
		c1.3-0.3,2.7-0.7,4-1c0.1-0.9,0.2-1.7,0.2-2.6c-0.8-0.1-1.6-0.1-2.4-0.2c0,0.3,0,0.5-0.1,0.8c0,0.1,0,0.2,0,0.3l-0.3,0
		c-0.6,0-1.3-0.1-1.9-0.1c-0.1,0-0.2,0-0.3,0c0-0.1,0-0.2,0-0.3c0-0.4,0-0.7,0.1-1.1c0,0,0-0.1,0-0.1c0,0,0,0,0.1-0.1
		c0.6-0.6,1.2-1.2,1.8-1.8l0.1-0.1c0,0,0.1,0,0.1,0c1.3,0.1,2.6,0.2,3.8,0.3c0,0,0.1,0,0.1,0c0,0,0.1,0.1,0.1,0.1
		c0.5,0.7,1,1.4,1.5,2.1c0,0,0,0.1,0.1,0.1c0,0,0,0.1,0,0.1c-0.2,1.3-0.3,2.6-0.5,3.9c0,0,0,0.1,0,0.1c0,0,0,0-0.1,0.1
		c-0.4,0.3-0.7,0.7-1.1,1c0,0,0,0-0.1,0.1c0,0-0.1,0-0.1,0c-1.3,0.2-2.5,0.4-3.7,0.7c-0.1,0.9-0.1,1.9-0.2,2.8
		c0.7,0.1,1.5,0.1,2.2,0.2c0-0.3,0.1-0.6,0.1-0.9c0-0.1,0-0.2,0-0.3c0.1,0,0.2,0,0.3,0c0.6,0.1,1.3,0.1,1.9,0.2c0.1,0,0.2,0,0.3,0
		c0,0.1,0,0.2,0,0.3c0,0.4-0.1,0.8-0.1,1.2c0,0,0,0.1,0,0.1c0,0,0,0-0.1,0.1C409.5,185.3,408.9,185.9,408.2,186.6
		C408.3,186.5,408.2,186.5,408.2,186.6L408.2,186.6z M385.3,186.5c0-0.1,0-0.2,0-0.3c-0.4-4.4-0.9-8.9-1.3-13.3c0-0.1,0-0.2,0-0.3
		c0.1,0,0.2,0,0.3,0c1.8-0.2,3.6-0.3,5.4-0.4c0.1,0,0.2,0,0.3,0c0,0.1,0,0.2,0,0.3c0,0.8,0.1,1.5,0.1,2.3c0,0.1,0,0.2,0,0.3
		c-0.1,0-0.2,0-0.3,0c-0.8,0-1.6,0.1-2.4,0.2c0.1,1,0.1,1.9,0.2,2.9c0.6,0,1.3-0.1,1.9-0.1c0.1,0,0.2,0,0.3,0c0,0.1,0,0.2,0,0.3
		c0,0.7,0.1,1.4,0.1,2c0,0.1,0,0.2,0,0.3c-0.1,0-0.2,0-0.3,0c-0.6,0-1.3,0.1-1.9,0.1c0.1,0.9,0.1,1.9,0.2,2.8
		c0.7-0.1,1.5-0.1,2.2-0.1c0.1,0,0.2,0,0.3,0c0,0.1,0,0.2,0,0.3c0,0.8,0.1,1.5,0.1,2.3c0,0.1,0,0.2,0,0.3c-0.1,0-0.2,0-0.3,0
		c-1.6,0.1-3.2,0.2-4.7,0.3C385.5,186.5,385.4,186.5,385.3,186.5L385.3,186.5z M393.1,186c0-0.1,0-0.2,0-0.3
		c-0.1-4.5-0.3-8.9-0.4-13.4c0-0.1,0-0.2,0-0.3c0.1,0,0.2,0,0.3,0c0.7,0,1.4,0,2.1,0c0.1,0,0.2,0,0.3,0c0,0.1,0,0.2,0,0.3
		c0,1.7,0,3.5,0,5.2c0.5,0,1,0,1.5,0c0.3-1.7,0.7-3.5,1-5.2c0-0.1,0-0.1,0-0.2c0.1,0,0.2,0,0.2,0c0.7,0,1.5,0,2.2,0
		c0.1,0,0.2,0,0.4,0c0,0.1-0.1,0.2-0.1,0.3c-0.5,1.9-1,3.8-1.5,5.7c0.4,0.4,0.8,0.8,1.2,1.2c0,0,0.1,0.1,0.1,0.1c0,0,0,0.1,0,0.1
		c0,1.6-0.1,3.1-0.1,4.7c0,0,0,0.1,0,0.1c0,0,0,0-0.1,0.1c-0.5,0.5-1,1-1.5,1.5c0,0-0.1,0.1-0.1,0.1c0,0-0.1,0-0.1,0
		c-1.8,0-3.5,0-5.3,0C393.3,186,393.2,186,393.1,186L393.1,186z M423.2,185.9c0.6-2.5,1.2-5.1,1.7-7.6c-0.8-0.2-1.6-0.4-2.4-0.5
		c-0.5,2.6-1.1,5.1-1.6,7.7C421.7,185.6,422.5,185.7,423.2,185.9L423.2,185.9z M398,183.5c0-1.1,0-2.3,0-3.4c-0.8,0-1.7,0-2.5,0
		c0,1.1,0,2.3,0,3.4C396.4,183.5,397.2,183.5,398,183.5z"/>
	<path class="st5" d="M399.1,221.5l2.8-1v26.2l-5.3,4.3l2.4-4.3V221.5z M377.5,220.5v26.2l-5,4.3l2.3-4.3v-27.5l4.5-4.1h7.3v2.8
		h-6.2L377.5,220.5z M403,220.6l-3.1-2.7h-4.7v-2.8h5.8l4.5,4.2L403,220.6z"/>
	<path class="st6" d="M391.4,229.9l2.7-1.2h3.9v2.7h-4.9L391.4,229.9z M411.9,225.1h6.7l-3.9,2.6v3.8h-7.9v-2.7h5.2L411.9,225.1z
		 M390.5,203v26.6l-2.8,1.1v-28.8l4.2-4.5h22.5l4.1,4.4l-2.5,1.1l-2.7-2.8l-20.1,0L390.5,203z M414.7,206.5l-2.8,1.4l0-4.1l2.8-1
		L414.7,206.5z"/>
</g>
</svg>
