<?xml version="1.0" encoding="utf-8"?>
<!-- Generator: Adobe Illustrator 19.0.0, SVG Export Plug-In . SVG Version: 6.00 Build 0)  -->
<svg version="1.1" id="layer" xmlns="http://www.w3.org/2000/svg" xmlns:xlink="http://www.w3.org/1999/xlink" x="0px" y="0px"
	 viewBox="-153 -46 652 652" style="enable-background:new -153 -46 652 652;" xml:space="preserve">
<style type="text/css">
	.st0{fill:#003056;}
</style>
<path class="st0" d="M347.6,241.5c-14.5,0-19,21.7-19,24.4c0,0.9,0,1.2,2.3,1.2c9.9,0,20.2-2.5,34.5-4.7c2.1-0.4,2.3-0.7,2.3-1.9
	C367.6,255.6,356.3,241.5,347.6,241.5z M376.9,264.3c-4.9,1.2-24,5.3-45.7,6.7c-3,0.2-3.6,1.2-3.6,5.5c0,26.3,20.3,33.3,34.8,33.3
	c12.6,0,19.4-4.6,20.5-4.6c0.9,0,1.5,1.2,1.5,1.5c0,0.9-16.2,12.9-31.6,12.9c-15.6,0-38.8-7.6-38.8-39.4c0-26.8,18.1-42.9,35.4-42.9
	c9.9,0,22.1,6.3,28.9,14.3c3.2,3.8,6.3,8.4,6.3,9.9C384.7,262.4,382,263.2,376.9,264.3z M463.1,244c-4.2,0-12.6,22.8-27.6,59.4
	c-12,29.1-20.5,44.5-26.6,57.1c-2.1,4.2-4.4,4.4-8.6,4.9c-5.7,0.7-7,2.3-11.2,2.3c-3.3,0-5.1-0.9-5.1-1.9c0-1.2,8.9-2.3,15.4-10.5
	c6.8-8.6,23.2-31,23.2-36.7c0-2.1-15.2-37.3-25.7-62c-4.7-11.4-6.1-12.4-9.5-12.4c-3.8,0-4-0.2-4-1.9c0-1.7,0.6-2.7,4-2.7
	c5.3,0,6.7,0.4,11.2,0.4c5.3,0,12-0.6,18.1-0.6c4,0,4.7,0.7,4.7,2.8c0,1.7-0.7,1.9-4.7,1.9c-4.6,0-5.7,1.2-5.7,5.5
	c0,5.5,4.9,12.2,16.3,41.5c1.5,4,3.8,7.2,4.6,7.2c1.4,0,2.5-2.7,5.5-11.6c4.6-13.7,11.4-33.5,11.4-36.1c0-5.7,0-6.8-6.5-6.8
	c-5.9,0-6.7,0-6.7-1.9c0-2.5,0.6-2.5,4-2.5c5.1,0,8.6,0.4,13.7,0.4c2.8,0,8-0.7,10.7-0.7c3,0,4,0.2,4,2.3
	C468.1,243,465.4,244,463.1,244z M334.9,339.1h-4.4v25.5h4.4V339.1z M351.9,349.6c0,0-0.3-0.8-2-6.1h-0.1c-1.7,5.3-2,6.1-2,6.1
	l-2,5.6h8.1L351.9,349.6z M357.1,364.5l-2.1-6.1h-10.2l-2.1,6.1h-4.1l8.9-25.1l5.2-0.4l9,25.5L357.1,364.5L357.1,364.5z
	 M-85.4,249.3c-6.1,0-7.9,0.9-7.9,5.7v39.2c0,2,0.7,14.2,2.7,16.4c2.4,2.7,9.4,4.1,16.4,4.1c16.6,0,28.9-11.4,28.9-30.4
	C-45.4,264.7-61.5,249.3-85.4,249.3z M-78.2,188.3c-14.4,0-15.1,2-15.1,6.4v47.5c0,3.5,2.8,3.1,8.1,3.1c13.3,0,22.6,1.3,22.6,1.3
	c6.4-4.8,13.6-9,13.6-26.3C-49.1,209.3-58.3,188.3-78.2,188.3z M-75.3,318.7c-9.2,0-18.4-2.2-28-2.2c-9.2,0-14,0.9-21,0.9
	c-2.2,0-3.7-0.2-3.7-2.4c0-2.2,1.3-2.7,6.1-2.7c9.9,0,10.3-0.4,10.3-3.7V207.9c0-17.3-3.5-19.2-9.6-19.2c-9.9,0-10.7-0.2-10.7-2.8
	c0-1.5,0.7-1.7,4.4-1.7c6.8,0,13.6,0.2,21.2,0.2c4.6,0,15.1-1.3,34.8-1.3c28.4,0,40.7,14.7,40.7,30.2c0,15.5-9.4,23.2-16.4,28
	c-4.1,2.8-9,5.2-9,5.9c0,0.4,4.1,1.5,8.5,3.7c10.3,5.2,23.2,12.7,23.2,31.8C-24.5,307.1-44.9,318.7-75.3,318.7z M15.9,241.5
	c-14.5,0-19.1,21.7-19.1,24.4c0,0.9,0,1.2,2.3,1.2c9.9,0,20.2-2.5,34.5-4.7c2.1-0.4,2.3-0.7,2.3-1.9
	C35.9,255.6,24.7,241.5,15.9,241.5z M45.2,264.3c-4.9,1.2-24,5.3-45.7,6.7c-3,0.2-3.6,1.2-3.6,5.5c0,26.3,20.3,33.3,34.8,33.3
	c12.6,0,19.4-4.6,20.5-4.6c0.9,0,1.5,1.2,1.5,1.5c0,0.9-16.2,12.9-31.6,12.9c-15.6,0-38.8-7.6-38.8-39.4c0-26.8,18.1-42.9,35.4-42.9
	c9.9,0,22.1,6.3,28.9,14.3c3.3,3.8,6.3,8.4,6.3,9.9C53,262.4,50.3,263.2,45.2,264.3z M114.9,259.2c-2.7,0-4.9-7.8-14.5-7.8
	c-11,0-15.2,4.6-15.2,12.6v39.2c0,9.3,0.6,9.3,14.7,9.3c4.9,0,5.1,0.6,5.1,2.3c0,2.1-0.2,1.9-5.1,1.9c-2.7,0-15.4-0.9-21.5-0.9
	c-6.5,0-12.9,0.9-15.6,0.9c-4.4,0-4.7,0-4.7-1.9s0.2-2.3,4.7-2.3c7.8,0,8.4-0.2,8.4-2.8v-52.2c0-12.9,0.4-13.3-10.3-13.3
	c-3.5,0-3.5,0.2-3.5-1.9c0-2.3-0.2-2.8,3-2.8c6.5,0,10.1,0.4,13.9,0.4c3,0,6.7-0.9,9.7-0.9c0.7,0,1.5,0.6,1.5,2.1
	c0,0.9-0.4,5.1-0.4,5.7c0,1.7,0.2,3,0.9,3c2.8,0,11.8-9.9,20.7-9.9c3.5,0,12.2,4.2,12.2,9.1C119,250.8,116,259.2,114.9,259.2z
	 M204.9,317.4c-2.3,0-4.7-0.2-6.5-0.2c-2.3,0-8,0.2-10.7,0.2c-3.5,0-5.1-4.7-13.1-13.9c-8-9.1-16-21.1-17.1-21.1
	c-0.7,0-3.5,1.9-6.7,4c-3,1.9-5.7,3.3-5.7,4.9v12c0,8.9-0.4,8.9,11.4,8.9c4.4,0,5.1,0.9,5.1,2.5c0,1.9-0.9,1.9-5.1,1.9
	c-2.8,0-11.6-0.4-17.7-0.4c-6.5,0-13.5,0.4-16.2,0.4c-4.4,0-5.5-0.2-5.5-1.9c0-1.5,0.9-2.5,5.5-2.5c6.5,0,8.2,0,8.2-2.8
	c0-5.5,0.6-61.8,0.6-102c0-13.5-1.5-15.2-6.7-15.2c-7.8,0-8.6-0.6-8.6-1.9c0-1.9,0.4-2.7,2.5-2.7c13.7,0,24.9-4.2,26.6-4.2
	c0.9,0,1.4,0.6,1.4,1.7c0,2.5-0.4,10.5-0.4,16.6c0,28.9-1.2,50.3-1.2,81.3c0,0.7,0.2,1.4,0.7,1.4c4.7,0,24.5-17.5,30.6-23.2
	c7.4-7,9.1-10.3,9.1-14.2c0-3-0.6-3.5-8.9-3.5c-2.8,0-3.8-0.4-3.8-2.1c0-1.5,0.9-1.9,3.5-1.9c1.9,0,5.5,0.6,7.8,0.6
	c2.5,0,13.5-0.6,15.8-0.6c1.5,0,2.3,0.2,2.3,0.7c0,1.7-6.5,9.9-12.4,15.6c-9.5,9.3-21.3,17.7-21.3,19.1c0,1.7,3.5,5.3,16.8,21.3
	c6.5,7.8,12.6,17.1,19.1,17.1c4.6,0,6.1,0.9,6.1,2.5C210.4,317.1,209.1,317.4,204.9,317.4z M237.8,241.5
	c-14.5,0-19.1,21.7-19.1,24.4c0,0.9,0,1.2,2.3,1.2c9.9,0,20.2-2.5,34.5-4.7c2.1-0.4,2.3-0.7,2.3-1.9
	C257.8,255.6,246.6,241.5,237.8,241.5z M267.1,264.3c-4.9,1.2-24,5.3-45.7,6.7c-3,0.2-3.6,1.2-3.6,5.5c0,26.3,20.3,33.3,34.8,33.3
	c12.6,0,19.4-4.6,20.5-4.6c0.9,0,1.5,1.2,1.5,1.5c0,0.9-16.2,12.9-31.6,12.9c-15.6,0-38.8-7.6-38.8-39.4c0-26.8,18.1-42.9,35.4-42.9
	c9.9,0,22.1,6.3,28.9,14.3c3.2,3.8,6.3,8.4,6.3,9.9C274.9,262.4,272.2,263.2,267.1,264.3z M309,316.7c-2.8,0-7-0.4-10.5-0.4
	c-6.5,0-16.5,0.4-19.2,0.4c-4.4,0-4.7-0.4-4.7-1.9c0-1.4,0.2-2.5,4.7-2.5c7.8,0,11,0.2,11-3.2V204.2c0-12-1.2-12-9.7-12
	c-3.4,0-5.3-0.4-5.3-2.5c0-2.3,1.5-2.1,4.7-2.3c14.9-0.9,22.1-4.2,23.2-4.2c0.9,0,1.9,0.9,1.9,3c0,2.3-0.9,9.1-0.9,14.9
	c0,72.5-0.9,87.6-0.9,93c0,15.8,1.4,17.9,4.7,17.9c9.5,0,9.1,1.1,9.1,2.7C317.2,316.7,315.9,316.7,309,316.7z M-106.1,364.9
	c-6.2,0-9.4-3.5-9.4-9.2v-16.6h4.4v16.8c0,3.2,1.4,5.3,5,5.3c3.6,0,4.9-2.1,4.9-5.2v-16.8h4.4v16.6
	C-96.7,361.4-99.9,364.9-106.1,364.9z M-75.3,364.5L-86,347.4h-0.1v17.1h-4.4v-25l4.3-0.4l10.4,16.8h0.1v-16.7h4.4v25.4H-75.3z
	 M-60.6,339.1H-65v25.5h4.4V339.1z M-42.7,364.5h-4.9l-8.8-25.5h4.7l4.9,14.2c0,0,0.5,1.5,1.7,5.9h0.2c1.3-4.3,1.7-5.8,1.7-5.8
	l4.9-14.2h4.3L-42.7,364.5z M-14.1,364.5h-15.4V339h15.1v3.8h-10.7v7h9.6v3.8h-9.6v7.2h11.4L-14.1,364.5z M0.2,342.8h-3.6v7.8h3.7
	c2.7,0,3.9-1.5,3.9-3.9S3.2,342.8,0.2,342.8z M5.4,364.5l-3.5-7.2c-0.7-1.5-1.7-3-3.3-3h-2.1v10.2h-4.4V339h8.2
	c5.6,0,8.4,3.1,8.4,7.5c0,3-1.4,5.7-4.8,6.9v0.1c0.8,0.5,1.3,1.2,1.5,1.7l4.9,9.2L5.4,364.5L5.4,364.5z M21.7,364.9
	c-3.5,0-6.3-1.4-8.4-2.8l1.8-3.3c2.1,1.4,4.6,2.3,6.5,2.3c3,0,4.4-1.7,4.4-3.5c0-4.7-11.3-3.2-11.3-11.8c0-4.5,3.8-7.2,8.3-7.2
	c2.7,0,5.2,0.9,7.4,2.3l-1.6,3.2c-1.9-1-3.6-1.7-5.8-1.7c-2.5,0-3.7,1.4-3.7,3.3c0,5.7,11.3,3.1,11.3,11.8
	C30.7,361.8,26.6,364.9,21.7,364.9z M40.4,339.1H36v25.5h4.4V339.1z M63,342.8h-6.5v21.7h-4.4v-21.6h-6.7v-3.8h17.9L63,342.8z
	 M78.7,353.6v10.9h-4.4v-10.9l-8-14.6h5l3.4,7.3c0,0,0.5,0.9,1.8,3.8h0.1c1.2-2.8,1.7-3.8,1.7-3.8l3.6-7.3h4.9L78.7,353.6z
	 M112.8,342.4c-4.4,0-6.5,3.8-6.5,9.3c0,5.5,2.2,9.4,6.5,9.4c4.4,0,6.5-3.9,6.5-9.4C119.3,346.2,117.2,342.4,112.8,342.4z
	 M112.8,364.9c-7.7,0-11.1-5.9-11.1-13.1c0-7.6,3.4-13.1,11.1-13.1c7.6,0,11.1,5.5,11.1,13.1C123.9,359,120.6,364.9,112.8,364.9z
	 M134,342.8v7h9.4v3.8H134v10.9h-4.4V339h14.8v3.8H134z M172.3,364.9c-7.8,0-11.3-5.3-11.3-13.1c0-7.6,3.8-13.1,11.4-13.1
	c3.1,0,5.8,1,8.4,3.3l-2.3,3c-2-1.6-3.8-2.5-6.2-2.5c-4.5,0-6.8,3.4-6.8,9.4c0,6,2.2,9.4,7,9.4c2.3,0,4.6-1,6.7-3l2.3,2.9
	C178.9,363.5,175.7,364.9,172.3,364.9z M197.2,349.6c0,0-0.3-0.8-2-6.1h-0.1c-1.7,5.3-2,6.1-2,6.1l-2,5.6h8.1L197.2,349.6z
	 M202.4,364.5l-2.1-6.1h-10.2l-2.1,6.1h-4.2l8.9-25.1l5.2-0.4l9,25.5L202.4,364.5L202.4,364.5z M225.6,364.5h-15v-25.4h4.4v21.6h11
	L225.6,364.5z M234.7,339.1h-4.4v25.5h4.4V339.1z M244.8,342.8v7h9.4v3.8h-9.4v10.9h-4.4V339h14.9v3.8H244.8z M269.2,342.4
	c-4.4,0-6.5,3.8-6.5,9.3c0,5.5,2.2,9.4,6.5,9.4c4.3,0,6.5-3.9,6.5-9.4C275.7,346.2,273.6,342.4,269.2,342.4z M269.2,364.9
	c-7.7,0-11.1-5.9-11.1-13.1c0-7.6,3.4-13.1,11.1-13.1c7.6,0,11,5.5,11,13.1C280.2,359,276.9,364.9,269.2,364.9z M292.1,342.8h-3.6
	v7.8h3.7c2.6,0,3.9-1.5,3.9-3.9S295.2,342.8,292.1,342.8z M297.4,364.5l-3.5-7.2c-0.7-1.5-1.7-3-3.3-3h-2.1v10.2h-4.4V339h8.2
	c5.6,0,8.4,3.1,8.4,7.5c0,3-1.4,5.7-4.8,6.9v0.1c0.8,0.5,1.3,1.2,1.5,1.7l4.9,9.2L297.4,364.5L297.4,364.5z M320.9,364.5l-10.7-17.1
	h-0.1v17.1h-4.4v-25l4.3-0.4l10.4,16.8h0.1v-16.7h4.4v25.4H320.9z"/>
</svg>
