<?xml version="1.0" standalone="no"?>
<!DOCTYPE svg PUBLIC "-//W3C//DTD SVG 20010904//EN"
 "http://www.w3.org/TR/2001/REC-SVG-20010904/DTD/svg10.dtd">
<svg version="1.0" xmlns="http://www.w3.org/2000/svg"
 width="1208.000000pt" height="1600.000000pt" viewBox="0 0 1208.000000 1600.000000"
 preserveAspectRatio="xMidYMid meet">

<g transform="translate(0.000000,1600.000000) scale(0.100000,-0.100000)"
fill="#000000" stroke="none">
<path d="M5071 12611 c-12 -8 -13 -91 -3 -598 7 -323 12 -739 12 -923 -1 -648
20 -2277 31 -2425 17 -224 58 -396 129 -534 40 -79 112 -174 157 -207 21 -16
40 -32 43 -35 11 -13 117 -66 155 -77 91 -27 124 -32 212 -32 138 0 229 28
330 102 51 37 140 151 168 213 28 66 55 144 77 230 23 88 23 100 23 580 0 270
-4 654 -8 853 l-8 364 128 131 c166 172 380 400 474 506 162 185 269 314 269
325 0 3 11 22 25 42 96 141 147 345 125 502 -29 210 -111 336 -289 447 -72 45
-143 84 -181 99 -25 10 -58 24 -75 31 -54 25 -268 93 -360 115 -49 11 -106 25
-125 30 -34 9 -175 40 -272 60 -92 19 -154 32 -233 50 -44 10 -96 22 -115 25
-19 4 -75 16 -125 26 -49 11 -115 24 -145 30 -30 6 -73 15 -95 19 -58 12 -147
29 -207 39 -29 5 -64 12 -78 15 -14 4 -31 2 -39 -3z m299 -210 c104 -21 168
-33 210 -41 25 -4 70 -13 100 -19 30 -7 78 -16 105 -21 28 -6 93 -19 145 -30
52 -12 115 -25 140 -30 25 -5 99 -23 165 -40 66 -18 136 -35 155 -40 84 -21
154 -42 192 -60 l27 -13 -57 -34 c-92 -55 -175 -145 -223 -239 -22 -46 -45
-100 -50 -121 -6 -21 -15 -54 -20 -73 -16 -54 -28 -151 -40 -311 -10 -145 -5
-303 21 -649 21 -270 27 -425 17 -445 -5 -11 -80 -92 -166 -180 -171 -175
-291 -307 -391 -429 -36 -44 -79 -95 -96 -115 -83 -98 -212 -282 -291 -413
-31 -54 -61 -98 -65 -98 -10 0 -11 3381 -2 3405 7 18 17 18 124 -4z m1381
-342 c252 -99 366 -195 438 -369 10 -24 14 -76 15 -170 0 -149 -10 -191 -80
-337 -62 -129 -199 -288 -547 -638 -163 -163 -190 -187 -199 -171 -5 9 -12
108 -14 219 -3 111 -9 307 -14 434 -25 570 76 927 291 1031 55 26 46 26 110 1z
m-462 -2319 c6 -140 16 -442 22 -670 11 -372 10 -428 -5 -540 -34 -260 -65
-357 -153 -491 -77 -116 -157 -159 -298 -159 -226 0 -417 101 -501 265 -59
116 -103 323 -107 505 -2 98 0 109 28 165 54 110 221 346 379 535 87 105 239
271 416 455 75 77 145 152 155 166 20 25 48 42 52 30 1 -3 6 -121 12 -261z"/>
<path d="M10530 6727 c-107 -18 -179 -96 -180 -193 0 -72 12 -106 51 -145 41
-41 73 -57 182 -92 38 -12 85 -36 105 -53 35 -30 37 -35 36 -88 0 -45 -5 -61
-25 -82 -37 -40 -72 -54 -134 -54 -61 0 -97 14 -134 54 -29 31 -52 33 -74 8
-23 -25 -21 -37 6 -62 33 -32 85 -56 150 -70 107 -22 221 24 271 110 16 27 20
52 20 108 -1 72 -1 73 -43 116 -46 47 -77 63 -186 96 -114 35 -165 99 -143
179 19 70 67 101 156 101 50 0 66 -5 100 -30 49 -36 63 -37 88 -9 19 21 18 21
-18 54 -53 49 -138 68 -228 52z"/>
<path d="M2386 6707 c-10 -7 -24 -29 -31 -48 -13 -33 -202 -470 -242 -559 -46
-101 -54 -123 -43 -134 6 -6 19 -7 36 0 20 7 34 29 65 99 l38 90 199 3 199 2
38 -87 c45 -107 51 -115 84 -111 19 2 26 8 24 23 -1 19 -58 158 -190 470 -33
77 -70 166 -83 198 -13 31 -29 57 -36 57 -7 0 -18 2 -26 5 -7 3 -22 -1 -32 -8z
m69 -174 c15 -38 33 -81 41 -98 44 -103 74 -188 69 -196 -4 -5 -74 -9 -156 -9
-169 0 -174 2 -141 67 11 21 41 90 66 152 49 122 72 165 85 156 5 -2 21 -35
36 -72z"/>
<path d="M3155 6704 c-10 -11 -13 -84 -14 -359 -2 -356 1 -385 38 -385 37 0
42 22 40 183 0 86 2 161 6 166 11 19 110 13 127 -6 9 -10 52 -81 97 -158 45
-77 91 -150 101 -162 22 -26 58 -30 66 -9 3 8 -38 86 -91 175 -53 89 -93 166
-90 171 3 5 23 14 43 20 66 18 115 76 127 145 13 85 -25 163 -100 201 -17 9
-66 18 -115 20 -47 2 -116 6 -153 8 -48 2 -72 -1 -82 -10z m322 -86 c40 -26
67 -83 56 -116 -17 -57 -29 -75 -57 -89 -34 -18 -172 -34 -223 -26 l-33 6 0
122 c0 67 3 125 8 129 4 5 53 6 109 4 88 -4 107 -8 140 -30z"/>
<path d="M4277 6708 c-9 -7 -25 -33 -35 -58 -11 -25 -29 -67 -42 -95 -12 -27
-28 -63 -35 -80 -24 -57 -77 -180 -95 -220 -10 -22 -32 -74 -50 -115 -18 -41
-41 -94 -52 -118 -21 -48 -17 -62 16 -62 32 0 48 22 86 118 l32 82 198 0 198
0 32 -82 c40 -99 54 -118 92 -118 42 0 41 2 -37 185 -8 17 -23 54 -35 84 -11
30 -29 73 -40 95 -30 66 -110 257 -110 261 0 13 -54 121 -64 127 -17 11 -40 9
-59 -4z m63 -161 c0 -4 9 -27 20 -52 11 -25 29 -65 40 -90 11 -25 20 -49 20
-53 0 -5 7 -22 15 -39 8 -16 16 -40 17 -54 l3 -24 -149 -3 c-82 -1 -153 1
-158 6 -7 7 118 317 146 360 6 11 13 7 27 -15 10 -15 19 -31 19 -36z"/>
<path d="M5042 6712 c-9 -7 -12 -90 -13 -372 0 -212 4 -367 9 -372 5 -5 20 -8
33 -6 l24 3 3 290 c1 160 4 296 7 304 8 20 30 -13 62 -92 14 -34 33 -80 43
-102 20 -45 48 -108 78 -175 11 -25 36 -83 57 -130 20 -47 41 -89 46 -95 16
-17 44 26 94 145 26 63 58 139 71 168 13 29 24 55 24 57 0 2 14 34 30 70 17
36 30 70 30 75 0 6 13 31 30 58 l29 47 3 -310 3 -310 35 0 35 0 3 364 c2 260
-1 368 -9 377 -12 15 -66 19 -86 6 -11 -7 -42 -69 -103 -212 -18 -41 -41 -95
-52 -120 -11 -25 -26 -58 -33 -75 -7 -16 -22 -51 -34 -77 -11 -26 -21 -53 -21
-59 0 -6 -9 -22 -19 -35 l-20 -25 -40 86 c-23 47 -41 88 -41 90 0 3 -10 27
-21 53 -12 26 -27 61 -34 77 -7 17 -27 64 -45 105 -18 41 -39 91 -47 110 -34
82 -37 85 -78 88 -22 1 -46 -2 -53 -6z"/>
<path d="M6245 6708 c-3 -7 -4 -177 -3 -378 l3 -365 224 -3 c156 -2 228 1 237
9 19 16 18 55 -2 63 -9 3 -99 6 -200 6 l-185 0 3 138 3 137 175 5 175 5 0 30
0 30 -177 3 -178 2 0 125 c0 121 1 125 23 130 12 3 96 4 187 2 l165 -2 0 35 0
35 -223 3 c-173 2 -224 0 -227 -10z"/>
<path d="M7056 6704 c-18 -17 -19 -24 -8 -42 6 -8 43 -14 113 -16 57 -2 112
-4 121 -5 16 -1 18 -26 20 -338 l3 -338 35 0 35 0 3 337 2 336 93 7 c50 3 102
4 114 1 22 -5 53 16 53 34 0 5 -7 16 -16 24 -13 14 -53 16 -284 16 -231 0
-271 -2 -284 -16z"/>
<path d="M8022 6708 c-9 -9 -12 -104 -12 -364 0 -194 3 -359 6 -368 6 -17 40
-21 61 -8 9 6 13 57 15 177 l3 170 39 3 c61 5 84 -5 106 -46 22 -41 32 -57 73
-119 15 -23 27 -45 27 -48 0 -4 14 -27 30 -52 17 -24 30 -48 30 -52 0 -29 80
-56 95 -32 6 10 2 17 -82 156 -29 48 -53 89 -53 91 0 3 -11 20 -24 37 -40 55
-40 65 4 78 48 15 104 59 124 101 9 17 16 56 16 86 0 102 -61 167 -178 191
-73 15 -265 14 -280 -1z m310 -84 c50 -26 68 -54 68 -107 0 -42 -5 -54 -33
-82 -38 -38 -82 -48 -197 -43 l-75 3 -3 119 c-2 85 1 122 9 127 19 11 201 -2
231 -17z"/>
<path d="M8922 6712 c-9 -7 -12 -89 -10 -378 l3 -369 23 -3 c52 -8 52 -8 52
383 0 322 -2 364 -16 369 -21 8 -36 7 -52 -2z"/>
<path d="M9462 6703 c-10 -21 -8 -715 2 -732 12 -19 54 -13 66 10 7 13 11 78
9 180 -1 87 0 162 4 165 3 3 88 -78 188 -180 180 -184 182 -186 225 -186 23 0
45 3 47 8 3 4 -80 95 -184 202 -104 107 -189 198 -189 202 0 5 14 20 32 35 18
16 69 62 113 103 44 41 109 100 144 131 70 60 73 79 15 79 -28 0 -46 -11 -106
-68 -40 -37 -91 -83 -113 -101 -22 -18 -68 -60 -101 -92 -34 -33 -64 -59 -68
-59 -3 0 -6 67 -6 148 0 102 -4 152 -12 160 -18 18 -56 15 -66 -5z"/>
<path d="M1280 6704 c0 -5 -2 -166 -4 -359 -2 -201 0 -357 6 -367 10 -20 43
-24 53 -7 4 5 6 77 6 159 -1 86 3 158 8 169 9 17 24 20 118 23 131 4 189 27
231 91 23 34 27 52 27 108 0 60 -3 71 -31 106 -53 66 -88 76 -261 81 -84 2
-153 0 -153 -4z m294 -68 c104 -43 111 -182 11 -231 -52 -25 -220 -29 -235 -5
-14 22 -13 223 2 238 17 17 180 16 222 -2z"/>
</g>
</svg>
