<svg id="svg" version="1.1" xmlns="http://www.w3.org/2000/svg" xmlns:xlink="http://www.w3.org/1999/xlink" width="400" height="529.8013245033112" viewBox="0, 0, 400,529.8013245033112"><g id="svgg"><path id="path0" d="M238.411 144.657 C 238.411 144.803,238.506 145.019,238.624 145.136 C 239.065 145.577,238.679 151.261,238.035 153.799 C 236.169 161.154,233.582 164.571,217.964 180.304 C 212.955 185.350,212.068 186.424,212.914 186.424 C 213.096 186.424,213.245 186.275,213.245 186.093 C 213.245 185.911,213.439 185.762,213.677 185.762 C 214.727 185.762,229.787 169.990,233.511 164.990 C 234.293 163.939,235.117 162.886,235.340 162.649 C 237.865 159.978,240.387 150.100,239.606 145.941 C 239.420 144.945,238.411 143.862,238.411 144.657 M205.844 155.324 C 205.469 158.911,205.867 171.127,206.469 174.503 C 206.550 174.959,206.767 177.790,206.951 180.795 C 207.593 191.255,207.600 190.620,206.826 191.457 C 206.441 191.873,203.816 194.601,200.993 197.521 C 188.143 210.809,173.227 229.960,174.633 231.366 C 175.083 231.816,178.477 228.196,178.477 227.266 C 178.477 227.147,178.826 226.588,179.252 226.025 C 179.678 225.461,180.893 223.733,181.952 222.185 C 183.010 220.637,183.973 219.296,184.090 219.205 C 184.207 219.114,184.637 218.562,185.045 217.978 C 185.453 217.393,186.077 216.574,186.432 216.156 C 186.787 215.739,187.861 214.427,188.820 213.241 C 189.779 212.055,190.861 210.753,191.225 210.348 C 191.589 209.942,192.260 209.152,192.715 208.592 C 193.171 208.032,194.119 206.949,194.823 206.187 C 195.527 205.425,196.532 204.220,197.058 203.510 C 197.583 202.800,198.013 202.317,198.013 202.437 C 198.013 202.558,198.790 201.798,199.739 200.749 C 201.774 198.499,205.619 194.425,207.355 192.678 C 209.374 190.647,209.370 190.192,207.139 167.053 C 206.858 164.139,206.615 160.031,206.599 157.924 C 206.566 153.581,206.169 152.216,205.844 155.324 M168.367 166.242 C 168.146 166.600,168.214 177.619,168.727 224.007 C 168.961 245.238,169.457 250.421,171.890 257.100 C 175.361 266.629,182.768 272.250,191.722 272.150 L 193.874 272.126 191.556 271.678 C 190.281 271.431,188.642 271.004,187.914 270.729 C 187.185 270.453,186.329 270.221,186.010 270.213 C 185.691 270.205,185.430 270.087,185.429 269.950 C 185.429 269.814,184.777 269.434,183.980 269.107 C 183.184 268.779,181.918 267.985,181.167 267.343 C 180.416 266.700,179.801 266.297,179.801 266.448 C 179.800 266.992,177.110 263.693,175.815 261.559 C 173.052 257.005,171.247 249.492,171.010 241.556 C 170.724 231.972,170.536 223.788,170.360 213.245 C 170.124 199.136,169.582 178.726,169.358 175.497 C 169.263 174.131,169.124 171.469,169.047 169.581 C 168.906 166.085,168.797 165.547,168.367 166.242 M208.001 201.780 C 208.888 217.801,209.150 245.436,208.457 249.825 C 206.691 261.004,202.963 266.999,196.609 268.874 C 194.089 269.618,194.783 269.735,197.530 269.030 C 204.754 267.175,209.058 259.758,210.280 247.060 C 210.933 240.278,209.851 200.378,208.970 198.732 C 208.017 196.949,207.776 197.708,208.001 201.780 M188.144 268.521 C 188.634 268.678,189.826 268.891,190.793 268.993 C 192.214 269.144,192.329 269.124,191.396 268.887 C 189.707 268.459,186.996 268.154,188.144 268.521 M349.338 306.871 C 345.319 307.241,342.715 309.972,342.715 313.816 C 342.715 317.457,344.357 319.200,349.506 321.028 C 354.418 322.771,355.449 323.751,355.185 326.428 C 354.771 330.618,348.790 331.963,345.364 328.636 L 344.205 327.510 343.129 328.192 C 339.297 330.618,349.033 334.350,353.674 332.234 C 357.326 330.568,358.923 326.518,357.319 322.987 C 356.341 320.834,355.835 320.537,348.904 318.051 C 346.111 317.049,345.107 315.519,345.467 312.811 C 345.920 309.391,351.182 308.047,354.302 310.554 L 355.516 311.530 356.566 310.865 C 357.918 310.009,357.891 309.806,356.265 308.628 C 354.310 307.212,351.998 306.625,349.338 306.871 M295.033 319.868 L 295.033 332.450 296.358 332.450 L 297.682 332.450 297.682 319.840 C 297.682 309.899,297.595 307.259,297.268 307.367 C 296.947 307.474,296.854 310.215,296.854 319.582 C 296.854 330.718,296.810 331.662,296.291 331.702 C 295.769 331.741,295.729 330.863,295.757 319.929 C 295.773 313.430,295.853 308.548,295.934 309.081 C 296.025 309.675,296.176 309.896,296.327 309.653 C 296.461 309.435,296.504 308.797,296.422 308.237 C 296.316 307.513,296.190 307.347,295.989 307.665 C 295.780 307.996,295.704 308.004,295.700 307.699 C 295.698 307.471,295.546 307.285,295.364 307.285 C 295.149 307.285,295.033 311.700,295.033 319.868 M313.245 319.848 L 313.245 332.450 314.587 332.450 L 315.929 332.450 315.867 326.314 C 315.833 322.938,315.871 320.111,315.952 320.031 C 316.032 319.951,318.829 322.712,322.168 326.168 L 328.238 332.450 330.013 332.450 C 332.374 332.450,332.640 332.847,325.414 325.589 C 321.908 322.068,318.998 319.068,318.948 318.921 C 318.897 318.774,320.089 317.551,321.597 316.202 C 323.104 314.854,324.412 313.674,324.503 313.581 C 324.594 313.487,326.047 312.165,327.732 310.643 C 331.238 307.475,331.328 307.285,329.325 307.285 C 327.891 307.285,327.709 307.416,321.989 312.583 C 318.763 315.497,316.035 317.881,315.926 317.881 C 315.817 317.881,315.728 315.534,315.728 312.666 L 315.728 307.450 314.487 307.348 L 313.245 307.245 313.245 319.848 M275.665 308.274 C 275.551 308.458,275.676 308.520,275.949 308.415 C 276.217 308.312,276.821 308.480,277.291 308.788 C 277.761 309.096,278.146 309.205,278.146 309.032 C 278.146 308.358,276.015 307.708,275.665 308.274 M278.566 309.847 C 278.570 310.350,278.640 310.569,278.722 310.334 C 278.828 310.032,279.056 310.118,279.495 310.625 C 279.838 311.020,280.034 311.480,279.932 311.647 C 279.829 311.813,279.897 312.133,280.083 312.357 C 280.269 312.582,280.478 313.506,280.548 314.412 L 280.675 316.060 280.735 314.156 C 280.771 313.016,280.656 312.252,280.449 312.252 C 280.259 312.252,280.128 312.065,280.157 311.838 C 280.266 310.996,280.114 310.611,279.346 309.782 L 278.560 308.933 278.566 309.847 M274.762 310.090 C 275.542 310.333,276.374 310.693,276.611 310.890 C 276.932 311.156,277.042 311.122,277.042 310.756 C 277.042 310.486,276.778 310.265,276.454 310.265 C 276.131 310.265,275.775 310.116,275.662 309.934 C 275.550 309.752,274.982 309.613,274.401 309.625 C 273.378 309.646,273.390 309.661,274.762 310.090 M265.309 312.252 C 265.309 312.889,265.377 313.150,265.460 312.831 C 265.543 312.512,265.543 311.991,265.460 311.672 C 265.377 311.353,265.309 311.614,265.309 312.252 M267.640 313.907 C 267.640 314.727,267.704 315.062,267.783 314.652 C 267.862 314.243,267.862 313.572,267.783 313.162 C 267.704 312.752,267.640 313.088,267.640 313.907 M278.229 314.073 C 278.233 314.801,278.301 315.060,278.380 314.648 C 278.459 314.237,278.456 313.641,278.373 313.324 C 278.290 313.007,278.226 313.344,278.229 314.073 M265.309 315.232 C 265.309 315.869,265.377 316.130,265.460 315.811 C 265.543 315.493,265.543 314.971,265.460 314.652 C 265.377 314.334,265.309 314.594,265.309 315.232 M279.761 317.010 C 279.328 317.960,278.969 318.111,278.673 317.467 C 278.568 317.239,278.566 317.388,278.668 317.798 C 278.773 318.221,278.700 318.543,278.499 318.543 C 278.305 318.543,278.146 318.710,278.146 318.915 C 278.146 319.167,278.311 319.149,278.658 318.861 C 279.448 318.206,280.558 316.541,280.347 316.329 C 280.242 316.225,279.979 316.531,279.761 317.010 M265.340 318.709 C 265.342 319.983,265.402 320.464,265.473 319.777 C 265.545 319.090,265.544 318.047,265.471 317.460 C 265.398 316.872,265.339 317.434,265.340 318.709 M268.543 318.541 C 268.213 318.752,268.876 318.799,270.523 318.681 C 271.885 318.583,273.064 318.437,273.144 318.357 C 273.442 318.059,269.020 318.235,268.543 318.541 M277.318 319.206 C 277.190 319.412,276.869 319.499,276.605 319.397 C 276.311 319.284,276.212 319.354,276.349 319.576 C 276.500 319.821,276.331 319.862,275.828 319.702 C 275.294 319.533,275.152 319.577,275.326 319.859 C 275.475 320.100,275.908 320.169,276.443 320.037 C 277.422 319.795,278.036 319.316,277.743 319.023 C 277.637 318.917,277.445 318.999,277.318 319.206 M274.503 320.988 C 274.503 321.084,274.876 321.712,275.331 322.382 C 276.190 323.648,276.444 323.669,275.776 322.419 C 275.373 321.667,274.503 320.689,274.503 320.988 M273.540 323.096 C 274.576 324.985,275.166 325.826,275.166 325.415 C 275.166 325.100,272.844 321.192,272.656 321.192 C 272.568 321.192,272.966 322.049,273.540 323.096 M265.334 324.338 C 265.336 325.430,265.398 325.838,265.472 325.242 C 265.545 324.647,265.544 323.753,265.468 323.256 C 265.393 322.758,265.333 323.245,265.334 324.338 M267.669 326.159 C 267.669 327.889,267.725 328.597,267.793 327.732 C 267.861 326.867,267.861 325.451,267.793 324.586 C 267.725 323.721,267.669 324.429,267.669 326.159 M276.364 324.355 C 276.255 324.638,276.292 324.791,276.445 324.696 C 276.823 324.463,277.511 326.034,277.286 326.618 C 277.188 326.875,277.265 327.183,277.457 327.302 C 277.671 327.434,277.730 327.316,277.608 327.000 C 277.465 326.626,277.556 326.539,277.939 326.686 C 278.341 326.840,278.264 326.524,277.616 325.365 C 276.662 323.658,276.639 323.639,276.364 324.355 M265.309 327.483 C 265.309 328.121,265.377 328.382,265.460 328.063 C 265.543 327.744,265.543 327.223,265.460 326.904 C 265.377 326.585,265.309 326.846,265.309 327.483 M278.902 328.192 C 279.109 328.855,279.540 329.561,279.859 329.760 C 280.325 330.051,280.402 330.026,280.250 329.631 C 280.147 329.360,279.929 329.139,279.766 329.139 C 279.603 329.139,279.470 328.944,279.470 328.706 C 279.470 328.467,279.258 327.983,278.998 327.630 C 278.579 327.058,278.568 327.121,278.902 328.192 M280.759 330.885 C 281.334 331.618,281.073 331.898,279.816 331.898 C 279.278 331.898,278.914 332.023,279.008 332.174 C 279.101 332.326,279.751 332.450,280.452 332.450 C 281.837 332.450,282.019 331.643,280.842 330.723 C 280.355 330.343,280.346 330.360,280.759 330.885 M265.237 331.351 C 265.258 332.470,267.667 332.890,267.744 331.788 C 267.764 331.501,267.720 331.466,267.640 331.705 C 267.446 332.283,266.375 332.222,265.752 331.599 C 265.466 331.313,265.234 331.201,265.237 331.351 " stroke="none" fill="#2c0dbf" fill-rule="evenodd"></path><path id="path1" d="M173.952 129.801 C 173.952 131.167,174.011 131.726,174.082 131.043 C 174.154 130.360,174.154 129.243,174.082 128.560 C 174.011 127.877,173.952 128.435,173.952 129.801 M217.632 128.785 C 217.678 128.954,217.417 129.330,217.053 129.619 C 216.493 130.065,216.583 130.059,217.634 129.581 C 218.484 129.194,218.746 128.931,218.462 128.751 C 217.901 128.395,217.532 128.410,217.632 128.785 M229.658 129.105 C 228.882 129.409,229.369 129.795,230.749 129.969 C 231.389 130.050,231.678 129.940,231.678 129.613 C 231.678 129.352,231.566 129.139,231.429 129.139 C 231.292 129.139,230.982 129.075,230.739 128.997 C 230.496 128.918,230.010 128.967,229.658 129.105 M233.113 130.771 C 233.113 131.122,233.470 131.690,233.906 132.033 C 234.487 132.490,234.657 132.884,234.539 133.501 C 234.415 134.150,234.535 134.385,235.061 134.523 C 235.437 134.621,236.061 135.238,236.448 135.894 C 236.884 136.633,237.404 137.086,237.816 137.086 C 238.243 137.086,238.419 137.248,238.307 137.540 C 238.212 137.789,238.400 138.431,238.725 138.966 C 240.935 142.599,241.193 155.959,239.095 158.057 C 238.901 158.252,238.742 158.693,238.742 159.037 C 238.742 159.382,238.444 160.043,238.079 160.506 C 237.715 160.969,237.417 161.524,237.417 161.740 C 237.417 162.134,235.327 165.154,234.199 166.391 C 233.867 166.755,233.151 167.649,232.609 168.377 C 231.110 170.390,228.829 172.981,225.911 175.983 C 224.954 176.967,224.172 177.920,224.172 178.102 C 224.172 178.284,223.882 178.524,223.527 178.637 C 223.172 178.750,222.800 179.095,222.700 179.404 C 222.547 179.878,221.712 180.840,219.912 182.616 C 218.646 183.865,211.618 191.497,210.640 192.683 C 209.294 194.318,209.245 194.790,209.886 200.000 C 210.344 203.726,210.927 224.801,210.927 237.645 C 210.927 251.340,209.927 256.979,206.452 262.887 C 205.061 265.250,201.841 268.935,201.462 268.596 C 201.328 268.476,201.331 268.572,201.468 268.809 C 201.669 269.159,201.860 269.147,202.469 268.748 C 202.967 268.422,203.333 268.366,203.550 268.583 C 203.767 268.800,204.403 268.328,205.425 267.191 C 206.276 266.245,206.894 265.393,206.799 265.298 C 206.704 265.203,206.924 264.918,207.287 264.663 C 208.004 264.161,208.207 263.405,207.533 263.747 C 207.305 263.862,207.404 263.725,207.752 263.443 C 208.611 262.745,210.249 259.284,210.012 258.667 C 209.901 258.377,209.962 258.257,210.158 258.378 C 210.358 258.501,210.666 257.813,210.912 256.694 C 211.142 255.653,211.462 254.429,211.624 253.974 C 211.787 253.518,211.941 252.401,211.966 251.490 C 211.992 250.579,212.155 249.653,212.329 249.431 C 212.646 249.028,212.478 221.467,212.052 203.896 C 211.938 199.210,211.965 195.112,212.112 194.791 C 212.259 194.469,212.391 194.050,212.404 193.860 C 212.418 193.670,213.164 192.776,214.063 191.873 C 214.962 190.970,215.409 190.604,215.056 191.060 C 214.510 191.764,214.574 191.742,215.485 190.915 C 216.571 189.929,216.870 189.502,216.174 189.932 C 215.935 190.080,215.882 190.023,216.031 189.781 C 216.163 189.568,216.399 189.473,216.556 189.570 C 216.853 189.753,217.359 189.153,217.394 188.576 C 217.405 188.394,217.569 188.274,217.759 188.310 C 217.948 188.345,218.980 187.488,220.051 186.406 C 221.123 185.323,221.913 184.437,221.808 184.437 C 221.601 184.437,223.372 182.514,227.601 178.146 C 229.100 176.598,229.789 175.778,229.131 176.325 C 228.474 176.871,228.840 176.434,229.945 175.354 C 231.050 174.274,231.659 173.604,231.298 173.864 C 230.787 174.233,230.824 174.109,231.463 173.305 C 231.915 172.736,232.359 172.309,232.450 172.356 C 232.541 172.402,233.212 171.831,233.940 171.087 C 235.035 169.968,235.067 169.903,234.127 170.711 L 232.989 171.689 233.796 170.631 C 234.240 170.049,234.766 169.565,234.965 169.555 C 235.165 169.545,235.612 169.204,235.959 168.797 C 236.372 168.312,236.413 168.170,236.077 168.383 C 235.761 168.584,235.788 168.502,236.146 168.170 C 236.465 167.874,236.621 167.526,236.493 167.398 C 236.364 167.269,236.482 167.213,236.755 167.274 C 237.028 167.334,237.214 167.198,237.169 166.970 C 237.123 166.743,237.272 166.594,237.500 166.639 C 237.728 166.685,237.873 166.525,237.823 166.283 C 237.773 166.042,237.877 165.935,238.055 166.044 C 238.232 166.154,238.539 165.942,238.737 165.572 C 238.934 165.203,238.979 164.900,238.836 164.899 C 238.693 164.898,239.023 164.515,239.570 164.047 C 240.116 163.580,240.339 163.295,240.066 163.415 C 239.793 163.535,239.942 163.326,240.397 162.950 C 240.853 162.574,241.085 162.263,240.914 162.259 C 240.742 162.255,240.891 162.040,241.244 161.782 C 241.597 161.524,241.776 161.202,241.641 161.067 C 241.506 160.932,241.702 160.606,242.077 160.343 C 242.459 160.076,242.679 159.654,242.576 159.386 C 242.473 159.118,242.536 158.995,242.719 159.108 C 243.004 159.285,243.203 158.609,243.086 157.864 C 243.064 157.728,243.179 157.616,243.341 157.616 C 243.503 157.616,243.628 157.430,243.620 157.202 C 243.582 156.201,243.729 155.602,243.974 155.754 C 244.228 155.911,244.574 154.865,245.329 151.656 C 245.522 150.836,245.630 148.675,245.569 146.854 C 245.421 142.438,245.408 142.318,245.082 142.519 C 244.674 142.771,243.967 140.170,244.209 139.307 C 244.376 138.714,244.344 138.670,244.044 139.073 C 243.733 139.489,243.693 139.462,243.798 138.907 C 243.917 138.277,243.217 136.424,242.861 136.424 C 242.768 136.424,242.851 136.722,243.046 137.086 C 243.319 137.596,243.298 137.748,242.956 137.748 C 242.712 137.748,242.249 137.152,241.927 136.424 C 241.606 135.695,241.196 135.099,241.016 135.099 C 240.836 135.099,240.797 134.926,240.928 134.713 C 241.088 134.454,241.431 134.644,241.970 135.293 C 242.412 135.824,242.623 135.960,242.438 135.596 C 241.786 134.313,238.176 131.033,237.903 131.475 C 237.752 131.719,237.781 131.807,237.973 131.688 C 238.154 131.577,238.933 132.130,239.705 132.916 C 240.752 133.983,240.986 134.394,240.626 134.533 C 240.051 134.753,238.742 133.913,238.742 133.323 C 238.742 133.095,238.144 132.645,237.413 132.323 C 236.640 131.981,236.177 131.588,236.306 131.380 C 236.427 131.184,236.381 131.113,236.203 131.223 C 236.026 131.333,235.403 131.132,234.820 130.778 C 233.486 129.967,233.113 129.965,233.113 130.771 M217.403 132.277 C 216.868 132.715,216.286 132.985,216.110 132.876 C 215.930 132.764,215.900 132.854,216.041 133.082 C 216.181 133.309,216.036 133.766,215.710 134.127 C 214.541 135.418,215.443 134.720,217.022 133.112 C 218.794 131.306,218.915 131.042,217.403 132.277 M167.684 137.748 C 167.684 140.753,167.735 141.983,167.796 140.480 C 167.857 138.978,167.857 136.519,167.796 135.017 C 167.735 133.514,167.684 134.743,167.684 137.748 M214.621 133.628 C 214.409 134.094,214.107 134.395,213.950 134.298 C 213.544 134.047,212.474 135.318,212.735 135.741 C 212.855 135.934,212.832 136.094,212.685 136.095 C 212.410 136.098,211.589 137.652,211.589 138.169 C 211.589 138.328,211.370 138.678,211.101 138.946 C 210.508 139.540,209.305 143.324,209.065 145.353 C 208.969 146.167,208.797 146.984,208.683 147.169 C 208.426 147.584,208.387 147.829,208.014 151.325 C 207.530 155.858,207.559 162.303,208.094 168.874 C 208.628 175.426,208.793 177.592,209.116 182.285 C 209.350 185.683,209.753 187.277,210.446 187.543 C 210.711 187.645,210.927 187.576,210.927 187.391 C 210.927 187.206,211.336 186.703,211.836 186.273 L 212.744 185.491 211.831 185.666 C 211.121 185.802,210.959 185.732,211.105 185.353 C 211.207 185.085,211.133 181.529,210.940 177.450 C 210.424 166.564,210.380 148.251,210.870 148.088 C 211.083 148.016,211.256 147.710,211.253 147.406 C 211.249 146.944,211.199 146.932,210.945 147.334 C 210.567 147.931,210.894 145.164,211.314 144.205 C 211.535 143.702,211.562 143.782,211.427 144.536 C 211.305 145.217,211.344 145.374,211.551 145.033 C 211.717 144.760,211.858 143.791,211.864 142.881 C 211.873 141.460,212.010 140.391,212.266 139.735 C 212.301 139.644,212.312 139.458,212.291 139.321 C 212.269 139.185,212.404 139.073,212.589 139.073 C 212.780 139.073,212.849 139.468,212.747 139.983 C 212.577 140.849,212.585 140.855,212.907 140.118 C 213.094 139.692,213.141 139.173,213.013 138.965 C 212.683 138.431,212.643 137.416,212.961 137.612 C 213.106 137.702,213.319 137.403,213.433 136.948 C 213.548 136.492,213.850 135.947,214.105 135.735 C 214.655 135.279,214.702 135.557,214.227 136.446 C 214.038 136.798,213.960 137.086,214.053 137.086 C 214.145 137.086,214.461 136.623,214.754 136.056 C 215.047 135.490,215.135 135.120,214.951 135.234 C 214.255 135.664,214.224 134.725,214.902 133.773 C 215.290 133.227,215.473 132.781,215.307 132.781 C 215.142 132.781,214.833 133.162,214.621 133.628 M172.377 135.182 C 171.684 139.594,171.470 141.433,171.194 145.364 C 171.021 147.823,170.751 150.356,170.594 150.993 C 170.199 152.594,170.358 177.679,170.809 184.768 C 171.011 187.955,171.277 199.503,171.398 210.430 C 171.520 221.358,171.743 230.633,171.894 231.043 C 172.185 231.830,173.163 232.078,173.202 231.374 C 173.215 231.147,173.341 231.257,173.483 231.620 C 173.716 232.216,173.799 232.168,174.339 231.124 C 174.825 230.183,174.840 230.047,174.418 230.397 C 173.645 231.039,173.664 231.668,173.841 211.258 C 173.989 194.278,173.755 171.417,173.368 165.066 C 173.223 162.673,172.756 143.047,172.709 137.334 C 172.680 133.833,172.635 133.543,172.377 135.182 M173.609 147.351 C 173.609 148.353,173.671 148.762,173.747 148.262 C 173.823 147.761,173.823 146.941,173.747 146.440 C 173.671 145.940,173.609 146.349,173.609 147.351 M238.524 148.179 C 238.525 149.636,238.584 150.191,238.653 149.412 C 238.723 148.633,238.722 147.441,238.651 146.763 C 238.580 146.085,238.523 146.722,238.524 148.179 M210.181 161.158 C 210.121 162.943,210.072 161.573,210.072 158.113 C 210.071 154.652,210.120 153.192,210.180 154.867 C 210.240 156.542,210.240 159.373,210.181 161.158 M205.426 159.934 C 205.426 162.210,205.479 163.142,205.543 162.003 C 205.608 160.865,205.608 159.002,205.543 157.864 C 205.479 156.726,205.426 157.657,205.426 159.934 M227.633 169.950 L 226.325 171.358 227.732 170.049 C 229.041 168.831,229.291 168.543,229.041 168.543 C 228.987 168.543,228.353 169.176,227.633 169.950 M223.823 174.089 L 222.682 175.331 223.924 174.190 C 225.080 173.128,225.318 172.848,225.065 172.848 C 225.010 172.848,224.451 173.406,223.823 174.089 M206.717 181.291 C 206.720 182.202,206.784 182.535,206.860 182.032 C 206.936 181.529,206.934 180.784,206.856 180.376 C 206.777 179.969,206.715 180.381,206.717 181.291 M220.789 185.265 C 220.298 185.720,219.781 186.093,219.641 186.093 C 219.273 186.093,220.961 184.481,221.354 184.457 C 221.534 184.446,221.280 184.810,220.789 185.265 M205.095 198.108 C 204.710 198.329,203.758 199.255,202.979 200.166 C 202.200 201.076,201.438 201.870,201.285 201.930 C 201.131 201.989,199.390 203.852,197.414 206.069 C 195.439 208.285,192.419 211.624,190.703 213.487 C 186.476 218.076,180.803 225.275,177.717 229.967 C 177.237 230.695,176.206 232.129,175.426 233.152 C 172.573 236.892,171.917 238.494,171.880 241.818 C 171.789 249.848,174.468 259.730,177.635 263.047 C 178.173 263.611,178.584 264.181,178.548 264.314 C 178.511 264.447,178.933 264.788,179.485 265.074 C 180.468 265.582,180.479 265.579,180.062 264.911 C 179.828 264.537,179.443 264.305,179.205 264.396 C 178.965 264.488,178.867 264.410,178.985 264.220 C 179.101 264.032,179.018 263.663,178.799 263.400 C 178.581 263.137,178.484 262.711,178.583 262.454 C 178.682 262.196,178.541 261.710,178.270 261.373 C 177.811 260.803,177.802 260.811,178.139 261.507 C 178.692 262.648,178.235 262.392,177.630 261.222 C 177.337 260.655,177.260 260.292,177.459 260.415 C 177.707 260.568,177.700 260.376,177.438 259.800 C 177.227 259.339,176.930 259.039,176.777 259.134 C 176.623 259.228,176.569 259.112,176.656 258.875 C 176.873 258.284,176.006 255.893,175.689 256.206 C 175.549 256.344,175.466 256.233,175.504 255.960 C 175.654 254.912,175.477 253.491,175.243 253.859 C 175.109 254.069,174.960 253.331,174.912 252.218 C 174.863 251.106,174.671 249.628,174.484 248.934 C 174.107 247.536,174.099 238.411,174.475 238.411 C 174.752 238.411,175.962 236.109,175.986 235.537 C 175.995 235.322,176.136 235.024,176.299 234.874 C 176.472 234.716,176.484 234.797,176.326 235.068 C 176.139 235.390,176.181 235.456,176.461 235.283 C 176.684 235.145,176.792 234.838,176.701 234.601 C 176.610 234.364,176.760 233.895,177.034 233.559 C 177.308 233.222,177.424 233.156,177.291 233.412 C 177.137 233.710,177.182 233.796,177.418 233.650 C 177.620 233.525,177.692 233.179,177.578 232.882 C 177.429 232.492,177.493 232.417,177.809 232.613 C 178.092 232.788,178.169 232.755,178.024 232.522 C 177.901 232.323,178.425 231.250,179.189 230.137 C 180.657 227.998,181.449 227.208,180.809 228.520 C 180.451 229.256,180.458 229.266,180.931 228.676 C 181.209 228.331,181.353 227.915,181.252 227.751 C 181.024 227.382,181.769 226.439,182.119 226.656 C 182.474 226.875,183.108 226.049,183.283 225.141 C 183.427 224.394,184.106 223.446,184.106 223.992 C 184.106 224.147,184.394 224.014,184.746 223.696 C 185.098 223.377,185.316 222.936,185.231 222.714 C 185.147 222.493,185.343 221.981,185.668 221.576 C 185.993 221.170,186.780 220.182,187.417 219.379 C 188.055 218.577,188.752 217.977,188.966 218.046 C 189.180 218.116,189.553 217.921,189.794 217.613 C 190.187 217.110,190.173 217.099,189.652 217.507 C 188.972 218.041,188.904 217.635,189.534 216.805 C 190.020 216.164,190.576 216.000,190.200 216.607 C 190.053 216.846,190.109 216.900,190.352 216.750 C 190.565 216.618,190.654 216.372,190.549 216.203 C 190.335 215.857,193.712 212.145,193.989 212.421 C 194.086 212.518,193.429 213.377,192.530 214.329 L 190.894 216.060 192.639 214.410 C 193.598 213.503,194.315 212.584,194.232 212.367 C 194.048 211.889,195.585 210.157,195.977 210.400 C 196.131 210.495,196.689 210.096,197.218 209.513 C 197.765 208.910,197.858 208.723,197.434 209.080 C 196.276 210.052,196.557 209.198,197.787 208.006 C 198.391 207.421,199.010 207.056,199.164 207.196 C 199.318 207.336,199.338 207.265,199.207 207.039 C 198.943 206.580,200.503 204.830,200.937 205.098 C 201.086 205.189,202.463 203.972,203.998 202.393 C 205.532 200.814,206.378 199.879,205.877 200.315 C 204.824 201.233,204.686 200.875,205.629 199.669 C 206.777 198.202,206.473 197.316,205.095 198.108 M197.020 201.159 C 196.216 201.978,195.632 202.649,195.723 202.649 C 195.814 202.649,196.547 201.978,197.351 201.159 C 198.155 200.339,198.739 199.669,198.648 199.669 C 198.557 199.669,197.824 200.339,197.020 201.159 M168.352 208.113 C 168.352 211.937,168.401 213.456,168.459 211.489 C 168.518 209.521,168.518 206.392,168.459 204.535 C 168.400 202.678,168.352 204.288,168.352 208.113 M203.351 202.566 C 203.179 202.885,202.542 203.593,201.938 204.139 C 201.034 204.955,200.954 204.985,201.487 204.305 C 203.143 202.190,203.978 201.412,203.351 202.566 M208.065 209.437 C 208.064 211.076,208.120 211.788,208.189 211.020 C 208.258 210.251,208.259 208.910,208.191 208.040 C 208.122 207.169,208.066 207.798,208.065 209.437 M187.811 219.549 C 187.412 219.921,187.086 220.319,187.086 220.435 C 187.086 220.551,187.459 220.295,187.914 219.868 C 188.690 219.138,188.883 218.874,188.639 218.874 C 188.582 218.874,188.209 219.178,187.811 219.549 M179.072 230.797 C 178.346 232.072,178.561 232.071,179.470 230.795 C 179.859 230.248,180.056 229.802,179.907 229.803 C 179.758 229.805,179.382 230.252,179.072 230.797 M204.823 267.478 C 203.431 268.829,203.450 268.545,204.861 266.937 C 205.355 266.374,205.834 265.989,205.926 266.081 C 206.018 266.172,205.522 266.801,204.823 267.478 M42.143 307.699 C 41.674 308.301,41.599 331.788,42.066 331.788 C 42.262 331.788,42.331 331.937,42.219 332.119 C 41.914 332.611,44.281 332.529,44.600 332.036 C 44.747 331.809,44.868 329.289,44.868 326.437 C 44.868 320.319,44.515 320.897,48.374 320.691 C 53.905 320.395,55.548 319.638,56.900 316.762 C 58.643 313.054,57.071 309.471,53.029 307.935 C 50.947 307.144,42.714 306.965,42.143 307.699 M78.448 307.829 C 78.155 308.190,78.133 308.313,78.390 308.159 C 78.669 307.992,78.737 308.077,78.604 308.425 C 78.496 308.706,78.299 308.870,78.167 308.788 C 77.778 308.548,75.061 315.017,75.405 315.361 C 75.516 315.472,75.457 315.563,75.274 315.563 C 74.843 315.563,74.106 317.174,74.353 317.574 C 74.457 317.743,74.413 317.881,74.255 317.881 C 74.098 317.881,73.690 318.514,73.349 319.288 C 72.377 321.495,70.862 324.903,70.369 325.993 C 69.257 328.451,68.600 330.412,68.810 330.646 C 68.937 330.786,68.853 330.794,68.626 330.663 C 68.398 330.532,68.212 330.570,68.212 330.748 C 68.212 330.926,68.126 331.296,68.021 331.570 C 67.725 332.341,68.978 332.871,69.997 332.407 C 70.802 332.040,72.245 329.508,72.714 327.639 C 73.365 325.047,86.755 324.808,86.755 327.389 C 86.755 327.656,86.918 327.753,87.137 327.617 C 87.368 327.475,87.430 327.526,87.293 327.748 C 87.014 328.199,87.394 329.855,87.728 329.648 C 87.861 329.566,87.969 329.700,87.969 329.945 C 87.969 330.980,88.840 332.464,89.365 332.324 C 89.660 332.245,90.310 332.090,90.811 331.978 C 91.875 331.741,91.955 331.359,91.115 330.519 C 90.781 330.185,90.508 329.680,90.508 329.396 C 90.508 328.616,89.697 326.821,89.344 326.821 C 89.173 326.821,89.127 326.671,89.240 326.487 C 89.528 326.022,89.092 324.783,88.722 325.012 C 88.554 325.116,88.516 324.945,88.636 324.632 C 88.757 324.317,88.718 324.148,88.550 324.252 C 88.382 324.355,88.226 324.113,88.202 323.714 C 88.130 322.522,86.710 319.525,86.329 319.761 C 86.112 319.895,86.060 319.767,86.192 319.425 C 86.308 319.122,86.263 318.874,86.093 318.874 C 85.922 318.874,85.861 318.670,85.957 318.420 C 86.052 318.170,85.924 317.759,85.671 317.507 C 85.418 317.254,85.268 316.879,85.336 316.675 C 85.404 316.470,85.237 316.079,84.964 315.806 C 84.692 315.534,84.546 315.233,84.641 315.138 C 84.736 315.043,84.665 314.690,84.482 314.353 C 84.299 314.017,83.563 312.326,82.846 310.596 L 81.542 307.450 80.229 307.351 C 79.293 307.280,78.782 307.418,78.448 307.829 M104.542 307.489 C 104.017 308.014,104.268 331.703,104.801 331.908 C 106.244 332.461,106.519 330.749,106.376 322.104 C 106.367 321.603,106.503 321.284,106.679 321.393 C 106.855 321.501,107.080 321.277,107.180 320.894 C 107.280 320.512,107.577 320.199,107.840 320.199 C 108.102 320.199,108.241 320.322,108.148 320.472 C 108.055 320.623,108.648 320.718,109.466 320.684 C 110.935 320.623,111.943 321.350,111.329 322.029 C 111.199 322.174,111.263 322.194,111.470 322.076 C 111.956 321.798,113.023 323.410,112.777 324.051 C 112.672 324.324,112.734 324.449,112.918 324.335 C 113.212 324.153,113.388 324.591,113.284 325.248 C 113.263 325.385,113.413 325.459,113.618 325.414 C 113.822 325.368,114.065 325.538,114.157 325.791 C 114.269 326.099,114.173 326.173,113.867 326.015 C 113.616 325.885,113.669 325.991,113.985 326.250 C 114.301 326.509,114.450 326.842,114.316 326.990 C 114.182 327.138,114.242 327.162,114.449 327.043 C 114.902 326.785,115.400 327.351,115.710 328.477 C 115.892 329.140,115.862 329.206,115.559 328.808 C 115.223 328.366,115.196 328.366,115.317 328.808 C 115.392 329.081,115.632 329.305,115.851 329.305 C 116.251 329.305,116.873 330.065,116.882 330.566 C 116.885 330.713,116.701 330.722,116.474 330.585 C 116.189 330.414,116.201 330.510,116.511 330.893 C 116.759 331.199,117.078 331.378,117.219 331.291 C 117.359 331.204,117.659 331.355,117.884 331.626 C 119.032 333.009,119.760 331.879,118.714 330.337 C 118.075 329.396,118.009 329.139,118.407 329.139 C 118.685 329.139,118.820 328.988,118.705 328.803 C 118.591 328.617,118.366 328.547,118.206 328.646 C 118.045 328.745,117.758 328.534,117.566 328.177 C 117.052 327.215,117.144 326.933,117.733 327.669 C 118.230 328.288,118.236 328.285,117.894 327.579 C 117.676 327.128,117.350 326.919,117.048 327.035 C 116.778 327.138,116.556 327.070,116.556 326.884 C 116.556 326.697,116.456 326.284,116.334 325.966 C 116.167 325.530,116.228 325.455,116.583 325.661 C 116.862 325.823,116.941 325.811,116.777 325.633 C 116.625 325.467,116.391 325.331,116.257 325.331 C 115.601 325.331,112.971 321.025,113.378 320.618 C 113.487 320.509,113.576 320.595,113.576 320.809 C 113.576 321.101,113.737 321.097,114.225 320.792 C 114.678 320.510,114.756 320.314,114.485 320.146 C 114.237 319.993,114.452 319.770,115.076 319.533 C 116.451 319.010,118.212 317.608,118.212 317.036 C 118.212 316.772,118.329 316.556,118.472 316.556 C 118.615 316.556,118.741 316.296,118.752 315.977 C 118.763 315.658,118.809 314.801,118.855 314.073 C 118.993 311.884,118.920 311.642,117.729 310.323 C 116.665 309.146,115.771 308.714,113.079 308.075 L 112.086 307.840 113.079 307.601 C 114.005 307.379,113.979 307.360,112.685 307.324 C 111.922 307.302,111.204 307.436,111.089 307.621 C 110.975 307.806,110.760 307.883,110.612 307.791 C 110.149 307.505,104.793 307.238,104.542 307.489 M294.852 319.868 C 294.852 326.697,294.896 329.491,294.950 326.076 C 295.004 322.661,295.004 317.074,294.950 313.659 C 294.896 310.244,294.852 313.038,294.852 319.868 M297.832 319.702 C 297.832 326.440,297.876 329.150,297.930 325.723 C 297.984 322.297,297.984 316.783,297.930 313.472 C 297.876 310.160,297.832 312.964,297.832 319.702 M115.731 308.282 C 115.842 308.462,116.131 308.609,116.372 308.609 C 116.613 308.609,117.349 309.206,118.008 309.935 C 118.666 310.664,119.205 311.141,119.205 310.995 C 119.205 310.603,116.816 308.406,116.125 308.164 C 115.771 308.040,115.611 308.088,115.731 308.282 M206.400 310.099 C 206.402 311.374,206.461 311.855,206.533 311.168 C 206.605 310.481,206.604 309.438,206.530 308.850 C 206.457 308.262,206.399 308.825,206.400 310.099 M265.051 320.033 C 265.051 326.772,265.095 329.481,265.149 326.055 C 265.202 322.628,265.202 317.115,265.148 313.803 C 265.094 310.491,265.050 313.295,265.051 320.033 M312.731 318.874 C 312.731 324.793,312.776 327.214,312.831 324.255 C 312.885 321.296,312.885 316.453,312.831 313.493 C 312.776 310.534,312.731 312.955,312.731 318.874 M142.282 309.061 C 142.158 309.382,141.908 309.552,141.724 309.439 C 141.541 309.325,141.391 309.474,141.391 309.768 C 141.391 310.063,141.279 310.235,141.142 310.151 C 141.006 310.066,140.873 310.356,140.846 310.793 L 140.799 311.590 141.452 310.759 C 141.812 310.301,142.266 310.026,142.462 310.147 C 142.688 310.287,142.720 310.209,142.549 309.933 C 142.350 309.611,142.460 309.545,142.970 309.679 C 143.464 309.808,143.610 309.730,143.484 309.402 C 143.387 309.150,143.187 309.019,143.040 309.110 C 142.892 309.201,142.712 309.096,142.639 308.876 C 142.556 308.630,142.420 308.700,142.282 309.061 M115.148 310.388 C 117.279 311.468,117.960 313.406,117.012 315.696 C 116.678 316.504,116.288 317.092,116.144 317.003 C 116.001 316.914,115.985 316.677,116.109 316.477 C 116.233 316.276,115.952 316.398,115.485 316.748 C 114.782 317.274,114.727 317.418,115.165 317.577 C 115.547 317.716,115.382 317.879,114.575 318.161 C 113.876 318.404,113.381 318.432,113.258 318.233 C 113.150 318.059,111.531 317.889,109.660 317.857 L 106.258 317.799 106.349 313.884 C 106.399 311.731,106.553 310.148,106.692 310.366 C 106.887 310.673,106.945 310.673,106.949 310.366 C 106.952 310.130,107.587 309.929,108.526 309.869 C 113.307 309.562,113.557 309.582,115.148 310.388 M52.565 310.647 C 54.733 311.986,55.232 315.447,53.459 316.842 C 53.026 317.183,52.734 317.524,52.810 317.600 C 52.886 317.677,52.695 317.752,52.385 317.767 C 52.075 317.782,50.598 317.910,49.102 318.050 C 44.967 318.438,44.702 318.181,44.702 313.789 C 44.702 311.912,44.801 310.276,44.923 310.155 C 45.521 309.556,51.414 309.935,52.565 310.647 M141.957 311.590 C 141.859 311.963,141.921 312.168,142.098 312.058 C 142.271 311.951,142.638 312.050,142.914 312.279 C 143.353 312.644,143.365 312.587,143.011 311.811 C 142.532 310.758,142.193 310.687,141.957 311.590 M80.684 312.074 C 80.578 312.384,80.978 313.470,82.277 316.390 C 82.520 316.937,82.977 318.092,83.292 318.957 C 83.607 319.822,83.989 320.530,84.141 320.530 C 84.292 320.530,84.321 320.778,84.205 321.081 C 84.080 321.405,84.128 321.548,84.321 321.429 C 84.519 321.307,84.592 321.612,84.505 322.203 L 84.362 323.179 79.783 323.179 C 74.345 323.179,74.543 323.369,76.128 319.673 C 76.824 318.050,77.599 316.126,77.851 315.397 C 78.102 314.669,78.391 313.998,78.494 313.907 C 78.596 313.816,78.872 313.268,79.106 312.688 C 79.496 311.723,81.008 311.134,80.684 312.074 M146.082 312.600 C 146.276 313.155,146.496 313.549,146.571 313.473 C 146.735 313.309,146.110 311.589,145.886 311.589 C 145.800 311.589,145.888 312.044,146.082 312.600 M168.972 313.076 C 168.992 313.754,169.110 314.062,169.258 313.822 C 169.444 313.522,169.643 313.588,170.015 314.074 C 170.412 314.595,170.397 314.437,169.945 313.331 C 169.246 311.623,168.929 311.540,168.972 313.076 M188.140 312.748 C 187.930 313.208,187.899 313.576,188.070 313.576 C 188.239 313.576,188.431 314.433,188.497 315.480 C 188.597 317.066,188.627 316.928,188.679 314.652 C 188.747 311.674,188.702 311.514,188.140 312.748 M116.646 313.907 C 116.646 314.727,116.711 315.062,116.790 314.652 C 116.869 314.243,116.869 313.572,116.790 313.162 C 116.711 312.752,116.646 313.088,116.646 313.907 M320.343 313.659 L 319.371 314.735 320.447 313.763 C 321.039 313.228,321.523 312.743,321.523 312.686 C 321.523 312.431,321.250 312.656,320.343 313.659 M345.448 313.742 C 345.451 314.470,345.519 314.729,345.598 314.317 C 345.678 313.905,345.675 313.309,345.592 312.993 C 345.509 312.676,345.444 313.013,345.448 313.742 M119.620 314.073 C 119.624 314.801,119.691 315.060,119.771 314.648 C 119.850 314.237,119.847 313.641,119.764 313.324 C 119.681 313.007,119.616 313.344,119.620 314.073 M206.418 316.722 C 206.418 318.907,206.472 319.758,206.537 318.613 C 206.602 317.467,206.601 315.679,206.536 314.639 C 206.470 313.599,206.417 314.536,206.418 316.722 M138.903 315.816 C 138.446 316.148,136.665 319.888,136.867 320.090 C 136.957 320.180,136.670 320.783,136.230 321.431 C 135.790 322.079,135.430 322.815,135.430 323.066 C 135.430 323.317,135.081 324.079,134.655 324.758 C 134.228 325.438,133.942 326.180,134.020 326.407 C 134.098 326.635,134.017 326.821,133.840 326.821 C 133.663 326.821,133.418 327.492,133.295 328.311 C 133.173 329.131,132.936 329.801,132.769 329.801 C 132.355 329.801,131.317 331.428,131.570 331.680 C 131.681 331.791,132.028 331.675,132.340 331.421 C 132.827 331.027,132.868 331.027,132.628 331.425 C 132.438 331.741,132.471 331.815,132.730 331.654 C 132.941 331.524,133.113 331.273,133.113 331.096 C 133.113 330.918,133.358 330.219,133.659 329.542 C 133.959 328.865,134.173 328.050,134.135 327.732 C 134.096 327.413,134.186 327.152,134.335 327.152 C 134.485 327.152,134.804 326.705,135.046 326.159 C 135.288 325.613,135.706 325.166,135.974 325.166 C 136.257 325.166,136.364 325.006,136.228 324.786 C 136.063 324.519,136.254 324.472,136.871 324.627 C 137.354 324.748,137.748 324.711,137.748 324.546 C 137.748 324.380,137.392 324.155,136.957 324.045 C 136.522 323.936,136.077 323.614,135.967 323.330 C 135.858 323.046,135.909 322.900,136.080 323.005 C 136.251 323.111,136.497 322.634,136.626 321.946 C 136.756 321.258,136.931 320.899,137.015 321.149 C 137.099 321.398,137.445 320.812,137.785 319.848 C 138.125 318.883,138.332 318.023,138.246 317.936 C 138.159 317.850,138.396 317.281,138.773 316.671 C 139.472 315.540,139.495 315.387,138.903 315.816 M321.006 316.970 L 320.033 318.046 321.109 317.074 C 321.701 316.539,322.185 316.055,322.185 315.998 C 322.185 315.742,321.912 315.967,321.006 316.970 M209.271 317.964 C 209.271 318.100,211.916 318.183,215.149 318.148 C 221.063 318.084,220.365 317.962,213.162 317.802 C 211.021 317.754,209.271 317.827,209.271 317.964 M268.212 317.964 C 268.212 318.100,269.367 318.190,270.778 318.162 C 273.390 318.112,273.081 317.980,269.950 317.810 C 268.994 317.758,268.212 317.827,268.212 317.964 M112.481 318.424 C 112.246 318.660,107.567 318.605,107.326 318.364 C 107.243 318.280,108.416 318.212,109.934 318.212 C 111.451 318.212,112.598 318.307,112.481 318.424 M318.874 323.344 C 320.047 324.528,321.082 325.497,321.173 325.497 C 321.264 325.497,320.379 324.528,319.205 323.344 C 318.032 322.161,316.998 321.192,316.907 321.192 C 316.815 321.192,317.701 322.161,318.874 323.344 M137.337 322.517 C 137.014 323.667,136.718 323.608,142.378 323.533 C 148.156 323.458,147.791 323.532,147.412 322.506 L 147.128 321.738 146.939 322.458 C 146.639 323.605,137.855 323.582,137.682 322.434 C 137.572 321.705,137.564 321.706,137.337 322.517 M206.423 327.152 C 206.423 329.793,206.474 330.873,206.537 329.553 C 206.600 328.233,206.600 326.072,206.537 324.752 C 206.474 323.431,206.423 324.512,206.423 327.152 M149.418 325.243 C 149.455 325.769,149.604 326.025,149.775 325.854 C 149.946 325.683,149.919 325.305,149.712 324.949 C 149.398 324.413,149.362 324.449,149.418 325.243 M358.024 325.828 C 358.024 326.465,358.092 326.726,358.175 326.407 C 358.259 326.089,358.259 325.567,358.175 325.248 C 358.092 324.930,358.024 325.190,358.024 325.828 M178.505 326.574 C 178.731 327.076,178.946 327.448,178.982 327.402 C 179.510 326.739,179.842 325.718,179.417 326.068 C 179.028 326.389,178.837 326.389,178.510 326.068 C 178.178 325.743,178.177 325.844,178.505 326.574 " stroke="none" fill="#d609d2" fill-rule="evenodd"></path><path id="path2" d="M167.665 129.504 C 167.785 139.229,167.903 151.545,167.927 156.874 C 167.965 165.011,168.044 166.502,168.423 166.187 C 168.671 165.981,168.874 165.450,168.874 165.006 C 168.874 163.800,169.533 164.433,169.560 165.665 C 169.572 166.246,169.711 167.020,169.868 167.384 C 170.138 168.013,170.191 166.710,170.368 155.132 C 170.399 153.129,170.585 150.671,170.783 149.669 C 170.980 148.667,171.225 146.283,171.326 144.371 C 171.488 141.311,172.338 134.506,172.590 134.253 C 172.641 134.202,172.692 135.601,172.704 137.362 C 172.716 139.122,172.822 143.543,172.940 147.185 C 173.058 150.828,173.160 156.031,173.167 158.747 C 173.173 161.464,173.246 163.619,173.329 163.536 C 173.412 163.454,173.581 153.334,173.705 141.047 C 173.829 128.761,173.954 118.677,173.984 118.638 C 174.013 118.599,176.191 118.995,178.823 119.517 C 181.456 120.039,187.185 121.169,191.556 122.029 C 200.355 123.760,211.036 126.328,215.853 127.871 L 218.989 128.876 217.117 129.880 C 214.588 131.237,211.664 133.961,210.303 136.226 C 207.757 140.467,205.197 151.257,206.417 152.605 C 206.828 153.059,207.036 154.247,207.244 157.318 L 207.521 161.424 207.580 158.278 C 207.645 154.833,207.848 151.971,208.191 149.669 C 208.313 148.849,208.423 148.030,208.437 147.848 C 208.450 147.666,208.558 147.363,208.676 147.175 C 208.794 146.986,208.969 146.167,209.065 145.353 C 209.305 143.324,210.508 139.540,211.101 138.946 C 211.370 138.678,211.589 138.328,211.589 138.169 C 211.589 137.652,212.410 136.098,212.685 136.095 C 212.832 136.094,212.855 135.934,212.735 135.741 C 212.474 135.318,213.544 134.047,213.950 134.298 C 214.107 134.395,214.409 134.094,214.621 133.628 C 214.833 133.162,215.142 132.781,215.307 132.781 C 215.473 132.781,215.290 133.227,214.902 133.773 C 214.514 134.318,214.279 134.897,214.379 135.060 C 214.480 135.222,214.355 135.527,214.102 135.738 C 213.848 135.948,213.548 136.492,213.433 136.948 C 213.319 137.403,213.102 137.699,212.951 137.606 C 212.800 137.512,212.716 137.804,212.766 138.254 C 212.815 138.704,212.720 139.073,212.554 139.073 C 212.388 139.073,212.269 139.185,212.291 139.321 C 212.312 139.458,212.301 139.644,212.266 139.735 C 212.190 139.928,212.068 140.539,211.794 142.095 L 211.598 143.212 212.075 142.219 C 212.338 141.672,212.560 140.985,212.568 140.691 C 212.590 139.888,214.524 135.745,215.449 134.518 C 215.905 133.913,216.158 133.259,216.025 133.028 C 215.895 132.801,215.908 132.724,216.055 132.857 C 216.201 132.990,217.007 132.596,217.846 131.983 C 220.991 129.682,221.269 129.661,225.369 131.418 C 231.322 133.970,235.766 137.594,237.202 141.067 C 238.684 144.652,238.786 144.835,239.059 144.394 C 239.266 144.058,239.404 144.099,239.672 144.577 C 240.147 145.427,240.541 144.927,240.078 144.061 C 239.872 143.678,239.793 143.221,239.901 143.046 C 240.154 142.637,239.434 140.178,238.701 138.947 C 238.389 138.422,238.212 137.789,238.307 137.540 C 238.419 137.248,238.243 137.086,237.816 137.086 C 237.404 137.086,236.884 136.633,236.448 135.894 C 236.061 135.238,235.437 134.621,235.061 134.523 C 234.535 134.385,234.415 134.150,234.539 133.501 C 234.657 132.884,234.487 132.490,233.906 132.033 C 232.249 130.730,233.013 129.679,234.820 130.778 C 235.403 131.132,236.026 131.333,236.203 131.223 C 236.381 131.113,236.427 131.184,236.306 131.380 C 236.177 131.588,236.640 131.981,237.413 132.323 C 238.144 132.645,238.742 133.095,238.742 133.323 C 238.742 133.927,240.057 134.751,240.655 134.521 C 240.993 134.392,241.086 134.457,240.929 134.712 C 240.797 134.925,240.836 135.099,241.016 135.099 C 241.196 135.099,241.606 135.695,241.927 136.424 C 242.249 137.152,242.710 137.748,242.953 137.748 C 243.705 137.748,242.479 135.804,240.290 133.523 C 235.350 128.379,225.983 124.212,211.921 120.901 C 200.897 118.306,173.229 112.571,169.237 112.054 L 167.448 111.822 167.665 129.504 M231.429 129.139 C 231.566 129.139,231.678 129.352,231.678 129.613 C 231.678 130.107,230.223 130.101,229.419 129.604 C 228.928 129.300,230.063 128.778,230.739 128.997 C 230.982 129.075,231.292 129.139,231.429 129.139 M243.906 139.392 C 244.026 140.023,244.325 141.066,244.570 141.710 L 245.017 142.881 244.808 141.556 C 244.693 140.828,244.394 139.785,244.143 139.238 L 243.688 138.245 243.906 139.392 M211.089 144.950 C 210.979 145.633,210.821 146.565,210.738 147.020 C 210.631 147.604,210.672 147.702,210.878 147.351 C 211.195 146.810,211.667 143.709,211.433 143.709 C 211.353 143.709,211.198 144.267,211.089 144.950 M210.397 148.478 C 210.299 148.734,210.270 149.442,210.334 150.051 C 210.436 151.022,210.469 150.965,210.608 149.586 C 210.770 147.973,210.711 147.660,210.397 148.478 M210.072 158.113 C 210.072 161.573,210.121 162.943,210.181 161.158 C 210.240 159.373,210.240 156.542,210.180 154.867 C 210.120 153.192,210.071 154.652,210.072 158.113 M173.274 165.397 C 173.276 166.308,173.340 166.641,173.416 166.138 C 173.493 165.634,173.490 164.889,173.412 164.482 C 173.333 164.075,173.271 164.487,173.274 165.397 M233.796 170.631 L 232.989 171.689 234.044 170.716 C 235.142 169.704,235.267 169.524,234.851 169.555 C 234.714 169.565,234.240 170.049,233.796 170.631 M231.485 173.305 L 230.686 174.338 231.633 173.437 C 232.154 172.942,232.514 172.477,232.433 172.405 C 232.351 172.332,231.925 172.737,231.485 173.305 M228.958 176.242 L 227.649 177.649 229.056 176.340 C 230.365 175.123,230.616 174.834,230.365 174.834 C 230.311 174.834,229.678 175.468,228.958 176.242 " stroke="none" fill="#c70869" fill-rule="evenodd"></path><path id="path3" d="M239.304 144.702 C 239.858 146.429,239.568 152.693,238.827 155.012 C 238.054 157.429,235.980 161.972,235.340 162.649 C 235.117 162.886,234.293 163.939,233.511 164.990 C 231.155 168.153,224.575 175.443,220.778 179.097 C 219.731 180.104,218.874 181.048,218.874 181.193 C 218.874 181.745,219.433 181.411,220.704 180.100 C 221.428 179.354,222.992 177.752,224.180 176.540 C 225.368 175.329,227.231 173.310,228.319 172.054 C 229.407 170.797,230.745 169.299,231.291 168.723 C 232.896 167.033,235.095 164.107,235.097 163.659 C 235.098 163.431,235.225 163.245,235.378 163.245 C 235.753 163.245,237.417 160.152,237.417 159.456 C 237.417 159.151,237.543 158.979,237.696 159.074 C 239.257 160.039,240.973 146.277,239.517 144.469 C 239.077 143.922,239.060 143.941,239.304 144.702 M206.529 157.029 C 206.595 159.446,206.868 163.808,207.135 166.722 C 207.402 169.636,207.774 173.882,207.961 176.159 C 208.148 178.435,208.366 180.522,208.444 180.795 C 208.698 181.682,208.267 174.464,207.771 169.536 C 207.506 166.896,207.229 162.151,207.156 158.992 C 207.083 155.833,206.885 153.110,206.716 152.941 C 206.526 152.751,206.454 154.323,206.529 157.029 M169.025 168.874 C 169.129 171.515,169.287 174.644,169.375 175.828 C 169.604 178.911,170.145 199.681,170.378 214.404 C 170.488 221.325,170.638 228.328,170.712 229.967 C 170.786 231.606,170.855 235.175,170.865 237.898 C 170.899 247.155,173.211 258.774,175.470 261.033 C 175.654 261.217,175.230 259.965,174.528 258.250 C 172.305 252.823,170.998 244.309,171.611 239.249 C 171.767 237.968,171.811 235.877,171.709 234.603 C 171.607 233.328,171.390 226.772,171.227 220.033 C 170.472 188.958,169.576 164.824,169.162 164.404 C 168.946 164.186,168.899 165.712,169.025 168.874 M216.263 183.614 C 215.100 184.795,213.945 185.762,213.697 185.762 C 213.448 185.762,213.245 185.927,213.245 186.128 C 213.245 186.330,213.032 186.413,212.773 186.313 C 212.261 186.117,211.359 186.966,211.708 187.315 C 211.825 187.432,211.921 187.391,211.921 187.224 C 211.921 187.057,212.405 186.932,212.997 186.946 C 214.094 186.972,218.509 182.925,218.533 181.871 C 218.547 181.283,218.589 181.250,216.263 183.614 M208.699 184.106 C 208.699 184.925,208.764 185.261,208.843 184.851 C 208.922 184.441,208.922 183.771,208.843 183.361 C 208.764 182.951,208.699 183.286,208.699 184.106 M208.977 188.018 C 208.936 190.705,208.669 191.421,207.157 192.889 C 205.913 194.098,202.112 198.125,199.739 200.749 C 198.790 201.798,198.013 202.558,198.013 202.437 C 198.013 202.317,197.583 202.800,197.058 203.510 C 196.532 204.220,195.527 205.425,194.823 206.187 C 194.119 206.949,193.171 208.032,192.715 208.592 C 192.260 209.152,191.589 209.942,191.225 210.348 C 190.861 210.753,189.779 212.055,188.820 213.241 C 187.861 214.427,186.787 215.739,186.432 216.156 C 186.077 216.574,185.453 217.393,185.045 217.978 C 184.637 218.562,184.207 219.114,184.090 219.205 C 183.973 219.296,183.010 220.637,181.952 222.185 C 180.893 223.733,179.678 225.461,179.252 226.025 C 178.826 226.588,178.477 227.153,178.477 227.280 C 178.477 227.925,175.711 231.143,175.005 231.320 C 174.231 231.514,173.566 232.617,173.976 233.027 C 174.084 233.135,174.172 232.979,174.172 232.681 C 174.172 232.354,174.355 232.210,174.635 232.318 C 175.231 232.546,176.120 231.586,178.342 228.311 C 179.330 226.854,180.957 224.545,181.957 223.179 C 182.957 221.813,183.867 220.436,183.978 220.120 C 184.090 219.803,184.281 219.605,184.403 219.681 C 184.524 219.756,184.974 219.307,185.401 218.684 C 185.828 218.060,186.308 217.550,186.467 217.550 C 186.625 217.550,186.755 217.339,186.755 217.081 C 186.755 216.823,186.867 216.562,187.003 216.501 C 187.140 216.440,187.997 215.442,188.907 214.283 C 189.818 213.124,191.010 211.698,191.556 211.114 C 194.094 208.401,198.592 203.458,199.338 202.563 C 199.793 202.016,200.426 201.268,200.745 200.899 C 201.064 200.531,201.325 200.120,201.325 199.985 C 201.325 199.851,201.697 199.647,202.152 199.533 C 202.608 199.419,202.980 199.096,202.980 198.815 C 202.980 198.535,204.284 196.969,205.877 195.336 C 208.662 192.481,210.321 189.637,209.746 188.705 C 209.649 188.549,209.445 187.785,209.291 187.008 C 209.032 185.694,209.010 185.765,208.977 188.018 M168.328 190.728 C 168.328 192.276,168.385 192.910,168.454 192.136 C 168.524 191.362,168.524 190.095,168.454 189.321 C 168.385 188.547,168.328 189.180,168.328 190.728 M203.642 194.536 C 202.838 195.356,202.254 196.026,202.346 196.026 C 202.437 196.026,203.169 195.356,203.974 194.536 C 204.778 193.717,205.361 193.046,205.270 193.046 C 205.179 193.046,204.447 193.717,203.642 194.536 M207.563 197.257 C 206.712 198.246,206.553 198.675,207.036 198.675 C 207.285 198.675,207.636 198.340,207.818 197.930 C 207.999 197.521,208.107 197.372,208.058 197.599 C 208.008 197.827,208.107 198.013,208.277 198.013 C 208.959 198.013,209.361 199.624,209.592 203.279 L 209.835 207.119 209.876 203.808 C 209.940 198.720,208.882 195.722,207.563 197.257 M210.066 214.404 C 210.067 217.136,210.118 218.209,210.180 216.790 C 210.242 215.370,210.242 213.135,210.179 211.823 C 210.117 210.511,210.066 211.672,210.066 214.404 M210.402 227.318 C 210.402 230.596,210.452 231.892,210.512 230.198 C 210.572 228.505,210.572 225.823,210.511 224.238 C 210.451 222.654,210.401 224.040,210.402 227.318 M208.704 226.325 C 208.706 227.235,208.771 227.568,208.847 227.065 C 208.923 226.562,208.921 225.817,208.842 225.409 C 208.764 225.002,208.701 225.414,208.704 226.325 M172.185 235.119 C 172.185 235.494,172.334 235.709,172.517 235.596 C 172.699 235.483,172.848 235.177,172.848 234.914 C 172.848 234.652,172.699 234.437,172.517 234.437 C 172.334 234.437,172.185 234.744,172.185 235.119 M210.712 241.060 C 210.712 242.608,210.769 243.241,210.838 242.467 C 210.908 241.693,210.908 240.426,210.838 239.652 C 210.769 238.878,210.712 239.512,210.712 241.060 M210.166 247.820 C 210.038 249.261,209.995 250.502,210.070 250.578 C 210.274 250.782,210.684 246.553,210.531 245.826 C 210.458 245.481,210.294 246.378,210.166 247.820 M209.141 254.040 C 208.802 255.369,208.192 257.351,207.786 258.444 C 206.470 261.981,206.524 261.805,206.918 261.258 C 207.814 260.016,210.121 252.715,209.863 251.940 C 209.805 251.766,209.480 252.711,209.141 254.040 M205.388 263.328 C 203.580 266.114,201.296 267.955,198.675 268.738 C 197.703 269.028,190.725 269.147,190.896 268.870 C 190.961 268.766,190.482 268.743,189.832 268.819 C 189.113 268.903,188.730 268.830,188.852 268.632 C 188.972 268.438,188.706 268.374,188.186 268.473 C 187.529 268.599,187.384 268.534,187.588 268.204 C 187.782 267.889,187.704 267.827,187.306 267.980 C 187.003 268.096,186.755 268.051,186.755 267.881 C 186.755 267.710,186.531 267.656,186.258 267.761 C 185.985 267.866,185.762 267.778,185.762 267.566 C 185.762 267.353,185.603 267.278,185.409 267.397 C 185.215 267.517,184.173 266.996,183.094 266.239 C 182.015 265.482,181.217 265.085,181.322 265.357 C 181.566 265.994,185.468 268.543,186.199 268.543 C 186.505 268.543,186.755 268.657,186.755 268.797 C 186.755 268.937,188.481 269.330,190.591 269.671 C 194.655 270.328,196.045 270.221,199.591 268.979 C 201.655 268.256,204.352 265.791,205.877 263.234 C 206.924 261.477,206.541 261.551,205.388 263.328 M176.783 263.079 C 177.234 263.977,179.803 266.806,179.790 266.391 C 179.785 266.209,179.031 265.240,178.115 264.238 C 177.199 263.237,176.600 262.715,176.783 263.079 M181.598 267.713 C 182.130 268.143,183.173 268.762,183.916 269.089 C 184.658 269.416,185.339 269.775,185.430 269.887 C 185.522 269.998,186.192 270.257,186.921 270.461 C 187.649 270.665,189.065 271.067,190.066 271.354 C 193.200 272.254,196.929 272.148,199.421 271.091 C 201.112 270.373,200.994 270.111,199.255 270.725 C 196.906 271.554,185.667 270.493,186.281 269.500 C 186.381 269.338,186.174 269.205,185.821 269.205 C 185.468 269.205,184.155 268.693,182.904 268.068 C 181.102 267.167,180.831 267.093,181.598 267.713 M191.186 311.093 C 191.187 313.278,191.240 314.129,191.305 312.984 C 191.370 311.838,191.369 310.050,191.304 309.010 C 191.238 307.970,191.185 308.907,191.186 311.093 M206.623 319.911 L 206.623 332.462 214.487 332.374 L 222.351 332.285 222.455 331.018 L 222.560 329.751 215.907 329.859 L 209.254 329.967 209.345 325.363 L 209.437 320.759 215.232 320.727 L 221.026 320.695 221.129 319.454 L 221.232 318.212 215.252 318.212 L 209.272 318.212 209.272 313.855 L 209.272 309.499 215.563 309.700 L 221.854 309.901 221.854 308.593 L 221.854 307.285 216.198 307.285 C 211.819 307.285,210.572 307.378,210.679 307.699 C 210.807 308.085,212.081 308.217,216.814 308.337 C 219.703 308.410,218.467 308.942,215.334 308.974 C 208.579 309.044,208.945 308.805,208.743 313.283 C 208.658 315.174,208.522 317.132,208.441 317.632 C 208.311 318.444,208.395 318.543,209.225 318.543 C 209.736 318.543,210.265 318.654,210.401 318.789 C 210.536 318.925,212.108 318.985,213.894 318.924 C 215.875 318.856,217.223 318.945,217.351 319.151 C 217.740 319.781,216.794 319.973,213.164 320.003 C 208.505 320.042,208.609 319.916,208.609 325.519 C 208.609 330.816,208.304 330.540,214.215 330.590 C 218.664 330.628,219.671 330.805,219.018 331.435 C 218.729 331.713,213.760 331.907,209.024 331.824 L 206.955 331.788 207.015 320.033 L 207.075 308.278 207.815 308.278 C 208.718 308.278,209.603 307.961,209.603 307.637 C 209.603 307.506,208.932 307.390,208.113 307.379 L 206.623 307.359 206.623 319.911 M233.444 308.604 L 233.444 309.934 237.583 309.934 L 241.722 309.934 241.722 321.192 L 241.722 332.450 243.046 332.450 L 244.371 332.450 244.371 321.202 L 244.371 309.954 248.593 309.861 L 252.815 309.768 252.815 308.609 L 252.815 307.450 243.129 307.363 L 233.444 307.275 233.444 308.604 M265.401 307.935 C 265.288 308.292,265.347 308.868,265.533 309.215 C 265.719 309.563,265.779 309.939,265.667 310.051 C 265.554 310.163,265.448 315.235,265.430 321.321 C 265.412 327.407,265.479 332.254,265.580 332.092 C 265.684 331.924,266.182 331.917,266.739 332.077 L 267.715 332.357 267.715 326.692 L 267.715 321.026 270.085 320.861 C 271.388 320.770,272.395 320.792,272.322 320.909 C 272.249 321.027,272.427 321.214,272.718 321.326 C 273.009 321.437,273.171 321.727,273.078 321.970 C 272.985 322.213,273.058 322.621,273.241 322.878 C 273.494 323.233,273.525 323.187,273.375 322.682 C 273.179 322.025,273.181 322.025,273.682 322.673 C 273.960 323.032,274.111 323.524,274.018 323.766 C 273.913 324.038,273.995 324.116,274.232 323.970 C 274.488 323.812,274.546 323.915,274.406 324.279 C 274.277 324.617,274.350 324.796,274.598 324.748 C 274.819 324.704,274.979 324.930,274.954 325.248 C 274.929 325.567,275.040 325.828,275.202 325.828 C 275.364 325.828,275.459 326.014,275.414 326.242 C 275.368 326.469,275.583 326.636,275.891 326.613 C 276.536 326.564,276.958 327.360,276.451 327.673 C 276.250 327.797,276.399 328.086,276.814 328.377 C 277.201 328.648,277.460 329.042,277.389 329.253 C 277.318 329.463,277.496 329.833,277.786 330.074 C 278.075 330.315,278.127 330.419,277.901 330.305 C 277.631 330.169,277.558 330.274,277.688 330.612 C 277.797 330.895,278.088 331.126,278.336 331.126 C 278.587 331.126,278.708 331.332,278.609 331.589 C 278.512 331.844,278.614 332.165,278.837 332.302 C 279.071 332.447,279.156 332.415,279.039 332.226 C 278.924 332.038,279.256 331.898,279.816 331.898 C 281.012 331.898,281.341 331.618,280.845 331.021 C 280.638 330.772,280.567 330.470,280.687 330.350 C 280.807 330.230,280.722 330.132,280.499 330.132 C 280.276 330.132,280.188 329.980,280.303 329.793 C 280.418 329.606,280.390 329.475,280.240 329.501 C 279.358 329.654,279.072 329.417,279.218 328.652 C 279.304 328.203,279.247 327.913,279.091 328.010 C 278.841 328.164,278.678 327.721,278.757 327.105 C 278.772 326.988,278.480 326.813,278.108 326.715 C 277.607 326.584,277.480 326.666,277.619 327.028 C 277.731 327.321,277.666 327.431,277.457 327.302 C 277.265 327.183,277.188 326.875,277.286 326.618 C 277.523 326.003,276.814 324.469,276.409 324.719 C 276.235 324.827,276.257 324.607,276.458 324.232 C 276.699 323.783,276.710 323.480,276.491 323.345 C 276.308 323.232,276.154 323.260,276.149 323.408 C 276.143 323.555,275.986 323.414,275.800 323.093 C 275.613 322.773,275.566 322.340,275.695 322.132 C 275.831 321.912,275.785 321.842,275.585 321.965 C 274.891 322.394,274.297 321.169,274.963 320.682 C 275.293 320.440,275.465 320.084,275.345 319.890 C 275.062 319.432,275.363 319.442,276.263 319.922 C 276.921 320.272,276.945 320.256,276.526 319.749 C 276.127 319.265,276.134 319.216,276.575 319.386 C 276.856 319.493,277.194 319.406,277.326 319.193 C 277.504 318.904,277.639 318.919,277.851 319.253 C 278.073 319.603,278.137 319.574,278.141 319.123 C 278.143 318.804,278.303 318.543,278.496 318.543 C 278.689 318.543,278.738 318.729,278.605 318.957 C 278.472 319.185,278.677 319.096,279.060 318.760 C 279.472 318.399,279.675 317.937,279.557 317.630 C 279.431 317.301,279.492 317.193,279.722 317.335 C 279.923 317.459,280.195 317.386,280.326 317.173 C 280.476 316.931,280.422 316.874,280.184 317.021 C 279.973 317.151,279.801 317.095,279.801 316.897 C 279.801 316.698,279.988 316.464,280.215 316.377 C 280.708 316.188,280.583 312.979,280.058 312.334 C 279.824 312.047,279.856 311.743,280.164 311.341 C 280.408 311.022,280.478 310.871,280.321 311.004 C 280.163 311.137,279.758 310.928,279.421 310.539 C 279.050 310.111,278.808 310.005,278.808 310.269 C 278.808 310.510,278.712 310.611,278.595 310.494 C 278.478 310.377,278.590 310.025,278.844 309.713 C 279.149 309.337,279.165 309.229,278.891 309.393 C 278.623 309.554,278.468 309.431,278.451 309.043 C 278.436 308.700,278.354 308.620,278.258 308.855 C 278.137 309.156,277.920 309.174,277.447 308.921 C 277.093 308.731,276.890 308.435,276.996 308.263 C 277.117 308.067,276.879 308.068,276.359 308.265 C 275.722 308.507,275.567 308.481,275.692 308.154 C 275.812 307.842,275.571 307.768,274.802 307.881 C 274.070 307.989,273.818 307.921,273.979 307.660 C 274.148 307.388,273.033 307.285,269.909 307.285 C 265.926 307.285,265.592 307.333,265.401 307.935 M296.368 308.195 C 296.467 309.707,296.295 310.161,296.023 309.106 C 295.881 308.560,295.757 313.430,295.746 319.929 C 295.728 330.859,295.769 331.741,296.291 331.702 C 296.904 331.655,297.194 307.285,296.581 307.285 C 296.431 307.285,296.335 307.695,296.368 308.195 M313.064 319.868 C 313.064 326.697,313.108 329.491,313.162 326.076 C 313.216 322.661,313.216 317.074,313.162 313.659 C 313.108 310.244,313.064 313.038,313.064 319.868 M187.117 308.994 C 186.614 310.437,186.851 310.501,187.518 309.102 C 187.821 308.467,187.937 307.947,187.775 307.947 C 187.614 307.947,187.318 308.418,187.117 308.994 M275.662 309.934 C 275.775 310.116,276.165 310.265,276.529 310.265 C 276.893 310.265,277.115 310.389,277.021 310.541 C 276.927 310.692,277.231 311.377,277.696 312.061 C 278.682 313.511,278.572 316.000,277.480 316.974 C 277.101 317.311,277.075 317.293,277.334 316.872 C 277.507 316.590,277.330 316.721,276.941 317.162 C 276.551 317.604,276.067 317.863,275.864 317.738 C 275.662 317.613,275.497 317.677,275.497 317.881 C 275.497 318.084,275.371 318.173,275.217 318.078 C 275.064 317.983,274.430 318.044,273.810 318.214 C 272.013 318.705,267.947 318.932,268.543 318.508 C 268.953 318.216,268.924 318.179,268.377 318.296 C 267.743 318.431,267.715 318.260,267.702 314.197 L 267.688 309.957 270.682 309.848 C 272.328 309.789,274.076 309.709,274.567 309.671 C 275.057 309.634,275.550 309.752,275.662 309.934 M188.870 318.046 C 188.871 320.414,188.924 321.339,188.988 320.102 C 189.051 318.865,189.051 316.928,188.987 315.797 C 188.922 314.667,188.870 315.679,188.870 318.046 M185.832 316.898 C 185.611 317.251,185.431 317.729,185.433 317.959 C 185.434 318.189,185.660 317.946,185.935 317.418 C 186.509 316.317,186.433 315.935,185.832 316.898 M219.868 319.205 C 219.868 319.387,219.532 319.534,219.123 319.531 C 218.520 319.527,218.473 319.465,218.874 319.205 C 219.516 318.790,219.868 318.790,219.868 319.205 M315.695 320.281 C 315.564 320.509,315.584 320.580,315.739 320.438 C 315.894 320.297,316.850 320.968,317.862 321.929 L 319.702 323.675 317.892 321.772 C 315.848 319.621,316.011 319.732,315.695 320.281 M188.857 325.828 C 188.857 327.376,188.914 328.009,188.984 327.235 C 189.054 326.461,189.054 325.195,188.984 324.421 C 188.914 323.647,188.857 324.280,188.857 325.828 M181.745 326.009 C 181.448 326.643,181.300 327.221,181.416 327.292 C 181.532 327.364,181.876 326.840,182.180 326.129 C 182.864 324.527,182.487 324.424,181.745 326.009 M188.832 330.132 C 188.832 330.952,188.896 331.287,188.975 330.877 C 189.054 330.468,189.054 329.797,188.975 329.387 C 188.896 328.978,188.832 329.313,188.832 330.132 M178.139 331.705 C 178.504 332.459,179.470 332.745,179.470 332.100 C 179.470 331.907,179.311 331.847,179.117 331.967 C 178.923 332.087,178.542 331.910,178.271 331.573 C 177.811 331.001,177.802 331.010,178.139 331.705 M190.930 331.649 C 190.780 332.039,190.477 332.117,189.735 331.954 C 189.110 331.816,188.742 331.868,188.742 332.093 C 188.742 332.289,189.338 332.450,190.066 332.450 C 191.170 332.450,191.391 332.340,191.391 331.788 C 191.391 330.992,191.203 330.936,190.930 331.649 " stroke="none" fill="#6a11d0" fill-rule="evenodd"></path><path id="path4" d="M240.185 149.061 C 240.137 152.203,238.334 159.468,237.699 159.076 C 237.544 158.980,237.417 159.151,237.417 159.456 C 237.417 160.152,235.753 163.245,235.378 163.245 C 235.225 163.245,235.098 163.431,235.097 163.659 C 235.095 164.107,232.896 167.033,231.291 168.723 C 230.745 169.299,229.407 170.797,228.319 172.054 C 227.231 173.310,225.368 175.329,224.180 176.540 C 222.992 177.752,221.428 179.354,220.704 180.100 C 219.981 180.846,219.198 181.457,218.966 181.457 C 218.733 181.457,218.539 181.643,218.533 181.871 C 218.513 182.715,214.311 186.857,213.373 186.957 C 212.161 187.086,211.796 186.811,212.318 186.161 C 212.619 185.787,212.478 185.821,211.848 186.274 C 211.353 186.629,210.943 187.102,210.938 187.324 C 210.923 187.875,210.041 187.496,209.745 186.812 C 209.613 186.508,209.322 184.321,209.099 181.954 C 208.807 178.861,208.681 178.211,208.651 179.644 C 208.603 181.929,209.144 186.816,209.593 188.158 C 210.183 189.921,209.079 192.053,205.877 195.336 C 204.284 196.969,202.980 198.535,202.980 198.815 C 202.980 199.096,202.608 199.419,202.152 199.533 C 201.697 199.647,201.325 199.845,201.325 199.972 C 201.325 200.405,197.611 204.641,191.556 211.114 C 191.010 211.698,189.818 213.124,188.907 214.283 C 187.997 215.442,187.140 216.440,187.003 216.501 C 186.867 216.562,186.755 216.823,186.755 217.081 C 186.755 217.339,186.625 217.550,186.467 217.550 C 186.308 217.550,185.828 218.060,185.401 218.684 C 184.974 219.307,184.524 219.756,184.403 219.681 C 184.281 219.605,184.090 219.803,183.978 220.120 C 183.867 220.436,182.957 221.813,181.957 223.179 C 180.957 224.545,179.330 226.854,178.342 228.311 C 175.649 232.281,175.033 232.848,174.257 232.072 C 173.973 231.787,173.916 231.890,174.030 232.485 C 174.117 232.943,173.980 232.788,173.705 232.119 C 173.443 231.482,173.218 231.147,173.204 231.374 C 173.159 232.122,172.176 231.807,171.846 230.939 C 171.660 230.450,171.520 225.418,171.515 219.101 C 171.503 202.213,170.965 183.782,170.060 169.264 C 169.989 168.113,169.826 167.070,169.699 166.946 C 169.572 166.823,169.561 168.137,169.675 169.868 C 169.788 171.598,170.023 178.005,170.196 184.106 C 170.720 202.612,171.198 220.033,171.353 226.325 C 171.434 229.603,171.589 233.328,171.697 234.603 C 171.805 235.877,171.767 237.968,171.611 239.249 C 171.109 243.393,172.328 253.171,173.715 256.126 C 173.972 256.672,174.109 256.857,174.020 256.536 C 170.737 244.678,171.088 238.838,175.426 233.152 C 176.206 232.129,177.237 230.695,177.717 229.967 C 180.803 225.275,186.476 218.076,190.703 213.487 C 192.419 211.624,195.439 208.285,197.414 206.069 C 199.390 203.852,201.131 201.989,201.285 201.930 C 201.438 201.870,202.200 201.076,202.979 200.166 C 204.281 198.644,205.421 197.723,206.043 197.694 C 206.833 197.657,205.501 200.418,204.404 201.093 C 204.167 201.238,203.974 201.506,203.974 201.688 C 203.974 202.052,206.206 199.988,206.250 199.583 C 206.305 199.083,207.251 197.460,207.709 197.080 C 208.316 196.576,209.232 197.530,209.629 199.076 C 209.862 199.982,209.879 199.915,209.728 198.675 C 209.267 194.879,209.366 194.231,210.640 192.683 C 211.618 191.497,218.646 183.865,219.912 182.616 C 221.712 180.840,222.547 179.878,222.700 179.404 C 222.800 179.095,223.172 178.750,223.527 178.637 C 223.882 178.524,224.172 178.284,224.172 178.102 C 224.172 177.920,224.954 176.967,225.911 175.983 C 228.829 172.981,231.110 170.390,232.609 168.377 C 233.151 167.649,233.867 166.755,234.199 166.391 C 235.327 165.154,237.417 162.134,237.417 161.740 C 237.417 161.524,237.715 160.969,238.079 160.506 C 238.444 160.043,238.742 159.382,238.742 159.037 C 238.742 158.693,238.901 158.252,239.095 158.057 C 240.028 157.124,241.334 146.023,240.510 146.028 C 240.357 146.029,240.211 147.394,240.185 149.061 M207.338 163.079 C 207.313 164.172,207.513 167.152,207.784 169.702 C 208.055 172.252,208.277 174.962,208.278 175.725 C 208.278 176.489,208.395 177.186,208.538 177.274 C 208.681 177.362,208.536 174.130,208.216 170.092 C 207.532 161.462,207.400 160.408,207.338 163.079 M226.141 171.772 L 225.000 173.013 226.242 171.872 C 227.397 170.810,227.636 170.530,227.383 170.530 C 227.328 170.530,226.769 171.089,226.141 171.772 M213.879 192.013 C 212.916 192.997,212.785 193.558,213.735 192.627 C 214.249 192.124,214.610 191.659,214.537 191.594 C 214.464 191.529,214.168 191.718,213.879 192.013 M168.340 197.351 C 168.340 199.627,168.392 200.559,168.457 199.421 C 168.522 198.282,168.522 196.420,168.457 195.281 C 168.392 194.143,168.340 195.075,168.340 197.351 M200.000 198.179 C 199.196 198.998,198.612 199.669,198.703 199.669 C 198.794 199.669,199.527 198.998,200.331 198.179 C 201.135 197.359,201.719 196.689,201.628 196.689 C 201.537 196.689,200.804 197.359,200.000 198.179 M210.062 205.464 C 210.063 207.831,210.116 208.756,210.180 207.519 C 210.244 206.282,210.243 204.345,210.179 203.215 C 210.114 202.084,210.062 203.096,210.062 205.464 M201.854 203.820 C 201.033 204.828,200.261 205.611,200.138 205.558 C 200.015 205.506,199.693 205.799,199.421 206.209 C 198.435 207.693,199.593 206.906,201.369 204.884 C 203.235 202.760,203.807 201.987,203.515 201.987 C 203.423 201.987,202.676 202.812,201.854 203.820 M196.423 209.473 C 195.294 210.676,194.371 211.822,194.371 212.019 C 194.371 212.215,194.703 212.013,195.108 211.569 C 195.513 211.125,196.578 209.979,197.474 209.023 C 198.370 208.067,198.961 207.285,198.789 207.285 C 198.616 207.285,197.552 208.269,196.423 209.473 M210.402 215.728 C 210.402 219.007,210.452 220.303,210.512 218.609 C 210.572 216.915,210.572 214.233,210.511 212.649 C 210.451 211.064,210.401 212.450,210.402 215.728 M191.514 214.713 C 188.770 217.721,186.642 220.206,186.280 220.827 C 186.109 221.119,185.774 221.555,185.535 221.795 C 185.295 222.036,185.099 222.380,185.099 222.560 C 185.099 222.740,184.950 222.795,184.768 222.682 C 184.586 222.570,184.437 222.641,184.437 222.841 C 184.437 223.041,183.274 224.726,181.852 226.586 C 179.099 230.187,176.821 233.544,176.822 233.997 C 176.823 234.148,177.414 233.377,178.136 232.285 C 178.858 231.192,179.684 230.000,179.972 229.636 C 180.260 229.272,181.335 227.856,182.362 226.490 C 184.154 224.104,186.101 221.671,188.688 218.586 C 190.543 216.373,190.773 216.115,192.537 214.286 C 193.441 213.349,194.018 212.583,193.819 212.583 C 193.621 212.583,192.583 213.542,191.514 214.713 M210.739 230.464 C 210.739 234.925,210.786 236.751,210.843 234.520 C 210.901 232.289,210.901 228.638,210.843 226.407 C 210.786 224.176,210.739 226.002,210.739 230.464 M208.725 230.464 C 208.725 232.012,208.782 232.645,208.852 231.871 C 208.921 231.097,208.921 229.830,208.852 229.056 C 208.782 228.282,208.725 228.916,208.725 230.464 M172.848 234.914 C 172.848 235.177,172.699 235.483,172.517 235.596 C 172.334 235.709,172.185 235.494,172.185 235.119 C 172.185 234.744,172.334 234.437,172.517 234.437 C 172.699 234.437,172.848 234.652,172.848 234.914 M210.503 246.854 C 210.361 248.675,210.180 250.762,210.102 251.490 C 210.024 252.219,210.179 251.697,210.446 250.331 C 210.714 248.965,210.894 246.879,210.847 245.695 C 210.767 243.676,210.746 243.748,210.503 246.854 M209.302 254.796 C 208.124 260.056,204.990 265.475,201.853 267.670 C 201.507 267.913,201.325 268.277,201.450 268.478 C 202.526 270.219,208.792 259.489,209.776 254.222 C 210.134 252.300,209.758 252.757,209.302 254.796 M174.689 258.609 C 175.800 262.789,182.565 269.204,185.864 269.205 C 186.193 269.205,186.381 269.338,186.281 269.500 C 185.706 270.429,195.600 271.368,199.704 270.774 C 200.882 270.603,203.705 268.911,203.463 268.521 C 203.348 268.335,202.979 268.407,202.567 268.696 C 202.061 269.050,201.748 269.088,201.441 268.833 C 201.135 268.580,200.614 268.620,199.597 268.977 C 196.045 270.221,194.657 270.328,190.591 269.671 C 188.481 269.330,186.755 268.937,186.755 268.797 C 186.755 268.657,186.505 268.543,186.199 268.543 C 185.535 268.543,181.457 265.944,181.457 265.521 C 181.457 265.359,180.675 264.360,179.719 263.300 C 178.762 262.241,177.793 261.088,177.564 260.737 C 177.335 260.386,177.537 260.881,178.012 261.836 C 178.487 262.792,179.008 263.492,179.169 263.392 C 179.331 263.292,179.376 263.436,179.270 263.712 C 178.834 264.848,177.330 263.211,175.342 259.437 C 174.862 258.526,174.568 258.154,174.689 258.609 M180.506 264.487 C 180.918 265.012,180.906 265.024,180.381 264.612 C 179.719 264.092,179.591 264.547,180.215 265.203 C 180.478 265.480,180.237 265.441,179.553 265.096 C 178.961 264.797,178.477 264.473,178.477 264.376 C 178.477 264.279,178.596 264.273,178.741 264.363 C 178.886 264.452,179.222 264.389,179.486 264.222 C 179.750 264.054,179.986 263.915,180.009 263.912 C 180.032 263.910,180.256 264.168,180.506 264.487 M204.857 266.943 C 203.683 268.280,203.904 268.501,205.132 267.219 C 205.652 266.676,206.006 266.160,205.918 266.073 C 205.831 265.985,205.353 266.377,204.857 266.943 M104.124 307.700 C 104.037 307.929,104.004 313.554,104.052 320.200 L 104.139 332.285 105.381 332.388 L 106.623 332.490 106.550 327.752 L 106.478 323.013 106.375 327.369 C 106.269 331.887,106.089 332.402,104.793 331.905 C 104.352 331.735,104.300 330.189,104.380 319.498 C 104.429 312.781,104.428 307.285,104.377 307.285 C 104.326 307.285,104.212 307.472,104.124 307.700 M108.306 307.419 C 108.568 307.676,110.892 307.761,111.130 307.523 C 111.261 307.392,110.648 307.285,109.768 307.285 C 108.888 307.285,108.230 307.345,108.306 307.419 M141.111 307.864 C 140.944 308.183,139.060 312.467,136.924 317.384 C 134.788 322.301,132.737 326.995,132.367 327.815 C 130.236 332.536,130.243 332.450,132.017 332.450 C 133.125 332.450,134.885 329.606,135.641 326.594 L 135.833 325.828 142.420 325.828 C 148.054 325.828,149.007 325.900,149.007 326.325 C 149.007 326.598,149.162 326.821,149.352 326.821 C 149.542 326.821,149.657 327.007,149.607 327.235 C 149.337 328.463,151.259 332.081,152.286 332.279 C 154.477 332.701,154.406 332.186,151.244 324.705 C 146.527 313.546,144.833 309.512,144.382 308.361 C 143.881 307.086,141.692 306.754,141.111 307.864 M166.446 307.506 C 166.057 307.894,166.185 332.450,166.576 332.450 C 166.769 332.450,166.835 332.302,166.722 332.120 C 166.591 331.908,166.841 331.913,167.422 332.134 C 169.080 332.764,169.064 332.859,169.052 322.057 C 169.045 316.482,169.151 311.921,169.288 311.921 C 169.425 311.921,169.536 312.153,169.536 312.437 C 169.536 312.743,169.692 312.857,169.919 312.717 C 170.147 312.576,170.211 312.625,170.079 312.840 C 169.852 313.207,170.823 315.638,171.277 315.840 C 171.415 315.901,171.443 316.087,171.340 316.253 C 171.237 316.420,171.317 316.556,171.518 316.556 C 171.719 316.556,171.843 316.743,171.795 316.970 C 171.678 317.515,172.936 320.527,173.281 320.529 C 173.428 320.529,173.457 320.679,173.344 320.861 C 173.232 321.043,173.306 321.192,173.510 321.192 C 173.714 321.192,173.788 321.341,173.675 321.523 C 173.563 321.705,173.611 321.854,173.783 321.854 C 174.090 321.854,174.536 322.867,174.658 323.841 C 174.776 324.784,175.562 326.490,175.880 326.490 C 176.055 326.490,176.114 326.626,176.011 326.793 C 175.908 326.959,175.980 327.148,176.172 327.212 C 176.363 327.276,176.545 327.661,176.575 328.068 C 176.606 328.475,176.757 328.808,176.911 328.808 C 177.065 328.808,177.099 328.957,176.987 329.139 C 176.874 329.321,176.908 329.470,177.062 329.470 C 177.216 329.470,177.366 329.783,177.395 330.166 C 177.424 330.548,177.702 331.047,178.013 331.274 C 178.349 331.520,178.474 331.855,178.322 332.102 C 178.121 332.427,178.218 332.435,178.768 332.141 C 179.154 331.934,179.475 331.882,179.482 332.025 C 179.488 332.168,179.696 331.920,179.943 331.474 C 180.190 331.028,180.308 330.444,180.206 330.178 C 180.094 329.887,180.161 329.780,180.373 329.911 C 180.760 330.150,181.126 329.441,181.126 328.450 C 181.126 328.100,181.293 327.815,181.497 327.815 C 181.758 327.815,181.766 327.690,181.525 327.400 C 181.164 326.964,181.826 325.645,182.212 326.031 C 182.319 326.138,182.324 325.912,182.224 325.529 C 182.091 325.022,182.196 324.834,182.613 324.834 C 182.984 324.834,183.117 324.661,182.993 324.338 C 182.750 323.704,183.089 322.794,183.478 323.035 C 183.641 323.135,183.787 323.097,183.802 322.950 C 183.960 321.420,184.057 321.096,184.426 320.868 C 184.661 320.722,184.744 320.427,184.610 320.210 C 184.472 319.988,184.658 319.546,185.036 319.193 C 185.412 318.843,185.638 318.308,185.551 317.975 C 185.466 317.648,185.676 317.080,186.018 316.713 C 186.360 316.346,186.572 315.842,186.489 315.592 C 186.389 315.292,186.481 315.228,186.764 315.403 C 187.080 315.598,187.141 315.476,186.998 314.932 C 186.878 314.472,186.975 314.133,187.256 314.025 C 187.504 313.930,187.626 313.643,187.528 313.386 C 187.429 313.129,187.596 312.825,187.899 312.708 C 188.240 312.578,188.371 312.293,188.244 311.961 C 188.077 311.520,188.118 311.501,188.474 311.854 C 188.811 312.189,188.907 314.437,188.907 322.021 L 188.907 331.757 189.722 331.962 C 191.530 332.416,191.680 330.529,191.164 313.808 L 190.962 307.252 189.438 307.351 C 188.600 307.406,187.907 307.599,187.898 307.781 C 187.858 308.579,187.343 309.596,187.066 309.425 C 186.899 309.321,186.860 309.492,186.981 309.805 C 187.141 310.224,187.082 310.301,186.755 310.099 C 186.431 309.899,186.368 309.973,186.523 310.376 C 186.639 310.679,186.581 310.927,186.394 310.927 C 186.207 310.927,186.146 311.076,186.258 311.258 C 186.371 311.440,186.287 311.589,186.072 311.589 C 185.783 311.589,185.790 311.721,186.099 312.094 C 186.453 312.520,186.425 312.562,185.920 312.369 C 185.526 312.217,185.399 312.263,185.547 312.504 C 185.671 312.704,185.627 312.958,185.450 313.067 C 185.273 313.177,185.208 313.473,185.305 313.727 C 185.402 313.980,185.162 314.507,184.772 314.897 C 184.381 315.288,184.040 315.895,184.013 316.247 C 183.987 316.599,183.829 316.887,183.664 316.887 C 183.498 316.887,183.551 317.114,183.781 317.392 C 184.135 317.818,184.107 317.860,183.602 317.667 C 183.208 317.515,183.081 317.561,183.229 317.802 C 183.353 318.002,183.301 318.261,183.113 318.377 C 182.925 318.494,182.856 318.728,182.961 318.897 C 183.066 319.067,182.985 319.205,182.781 319.205 C 182.578 319.205,182.495 319.341,182.597 319.507 C 182.885 319.971,182.425 320.885,182.028 320.639 C 181.807 320.502,181.754 320.627,181.887 320.972 C 182.003 321.275,181.970 321.523,181.813 321.523 C 181.656 321.523,181.439 321.754,181.331 322.037 C 181.218 322.332,181.273 322.465,181.461 322.349 C 181.641 322.237,181.788 322.309,181.788 322.507 C 181.788 322.706,181.565 322.954,181.293 323.058 C 181.021 323.163,180.873 323.368,180.963 323.515 C 181.242 323.965,180.749 324.844,180.346 324.614 C 180.138 324.495,180.073 324.515,180.204 324.659 C 180.334 324.804,180.265 325.237,180.050 325.623 C 179.836 326.009,179.678 326.399,179.699 326.490 C 179.818 327.000,178.917 327.344,178.534 326.934 C 178.306 326.690,178.217 326.490,178.336 326.490 C 178.455 326.490,178.309 326.118,178.011 325.662 C 177.712 325.207,177.583 324.830,177.724 324.824 C 177.865 324.819,177.716 324.661,177.394 324.473 C 177.071 324.285,176.898 323.985,177.008 323.806 C 177.119 323.627,176.970 323.115,176.677 322.668 C 176.383 322.220,176.234 321.854,176.344 321.854 C 176.454 321.854,176.222 321.333,175.828 320.695 C 175.434 320.058,175.215 319.536,175.342 319.536 C 175.469 319.536,175.332 319.169,175.038 318.720 C 174.744 318.271,174.503 317.686,174.503 317.419 C 174.503 317.153,174.269 316.701,173.983 316.414 C 173.697 316.128,173.571 315.894,173.703 315.894 C 173.835 315.894,173.682 315.605,173.363 315.253 C 173.044 314.900,172.881 314.453,173.000 314.259 C 173.120 314.066,173.051 313.907,172.848 313.907 C 172.644 313.907,172.562 313.770,172.666 313.603 C 172.769 313.435,172.654 313.099,172.410 312.855 C 172.166 312.611,172.028 312.226,172.104 312.000 C 172.179 311.774,172.070 311.589,171.862 311.589 C 171.654 311.589,171.576 311.440,171.689 311.258 C 171.801 311.076,171.727 310.927,171.523 310.927 C 171.320 310.927,171.237 310.791,171.340 310.624 C 171.443 310.458,171.386 310.271,171.214 310.210 C 171.041 310.149,170.830 309.727,170.744 309.272 C 170.400 307.435,170.222 307.285,168.397 307.285 C 167.445 307.285,166.567 307.384,166.446 307.506 M209.341 307.794 C 209.106 308.060,208.501 308.278,207.995 308.278 L 207.075 308.278 207.015 320.033 L 206.955 331.788 209.024 331.824 C 213.760 331.907,218.729 331.713,219.018 331.435 C 219.671 330.805,218.664 330.628,214.215 330.590 C 208.304 330.540,208.609 330.816,208.609 325.519 C 208.609 319.916,208.505 320.042,213.164 320.003 C 216.794 319.973,217.740 319.781,217.351 319.151 C 217.223 318.945,215.875 318.856,213.894 318.924 C 212.108 318.985,210.536 318.925,210.401 318.789 C 210.265 318.654,209.736 318.543,209.225 318.543 C 208.395 318.543,208.311 318.444,208.441 317.632 C 208.522 317.132,208.658 315.174,208.743 313.283 C 208.945 308.805,208.579 309.044,215.334 308.974 C 218.338 308.943,219.784 308.379,216.974 308.335 C 212.221 308.260,210.848 308.125,210.692 307.719 C 210.475 307.153,209.878 307.186,209.341 307.794 M112.583 307.915 C 112.856 308.109,113.397 308.270,113.784 308.273 C 115.024 308.282,116.761 309.206,117.833 310.426 C 118.922 311.667,118.991 311.913,118.855 314.073 C 118.809 314.801,118.763 315.658,118.752 315.977 C 118.741 316.296,118.615 316.556,118.472 316.556 C 118.329 316.556,118.212 316.772,118.212 317.036 C 118.212 317.604,116.455 319.009,115.102 319.523 C 114.576 319.723,114.242 319.982,114.359 320.099 C 114.476 320.215,115.279 319.980,116.143 319.575 C 120.696 317.442,120.681 310.720,116.119 308.440 C 114.864 307.812,111.800 307.357,112.583 307.915 M221.931 308.609 C 221.931 309.247,221.999 309.507,222.083 309.189 C 222.166 308.870,222.166 308.349,222.083 308.030 C 221.999 307.711,221.931 307.972,221.931 308.609 M233.189 308.609 C 233.189 309.247,233.258 309.507,233.341 309.189 C 233.424 308.870,233.424 308.349,233.341 308.030 C 233.258 307.711,233.189 307.972,233.189 308.609 M325.973 308.692 L 325.000 309.768 326.076 308.796 C 326.668 308.261,327.152 307.776,327.152 307.720 C 327.152 307.464,326.879 307.689,325.973 308.692 M143.040 309.110 C 143.187 309.019,143.387 309.150,143.484 309.402 C 143.610 309.730,143.464 309.808,142.970 309.679 C 142.460 309.545,142.350 309.611,142.549 309.933 C 142.720 310.209,142.688 310.287,142.462 310.147 C 142.266 310.026,141.812 310.301,141.452 310.759 L 140.799 311.590 140.846 310.793 C 140.873 310.356,141.006 310.066,141.142 310.151 C 141.279 310.235,141.391 310.063,141.391 309.768 C 141.391 309.474,141.541 309.325,141.724 309.439 C 141.908 309.552,142.158 309.382,142.282 309.061 C 142.420 308.700,142.556 308.630,142.639 308.876 C 142.712 309.096,142.892 309.201,143.040 309.110 M112.252 309.832 C 116.284 310.508,118.002 313.233,116.230 316.140 C 115.833 316.791,115.733 317.183,115.977 317.134 C 116.197 317.089,116.659 316.423,117.003 315.653 C 118.317 312.709,115.922 309.506,112.511 309.648 C 111.626 309.684,111.578 309.719,112.252 309.832 M211.327 309.848 C 212.548 309.911,214.634 309.912,215.962 309.849 C 217.291 309.786,216.291 309.734,213.742 309.733 C 211.192 309.733,210.105 309.784,211.327 309.848 M268.009 314.073 C 268.010 316.440,268.063 317.365,268.127 316.129 C 268.191 314.892,268.190 312.955,268.126 311.824 C 268.061 310.693,268.009 311.705,268.009 314.073 M144.492 315.392 C 145.518 317.848,146.358 319.942,146.358 320.046 C 146.358 320.150,146.666 320.912,147.043 321.739 C 147.420 322.566,147.678 323.293,147.617 323.355 C 147.349 323.622,136.930 323.577,137.027 323.309 C 137.086 323.146,137.338 322.566,137.589 322.020 C 138.749 319.489,140.849 314.553,141.500 312.831 C 142.443 310.334,142.343 310.249,144.492 315.392 M106.409 315.066 C 106.408 316.705,106.464 317.418,106.533 316.649 C 106.603 315.881,106.604 314.539,106.535 313.669 C 106.467 312.798,106.410 313.427,106.409 315.066 M138.773 316.671 C 138.396 317.281,138.159 317.850,138.246 317.936 C 138.332 318.023,138.125 318.883,137.785 319.848 C 137.445 320.812,137.099 321.398,137.015 321.149 C 136.931 320.899,136.756 321.258,136.626 321.946 C 136.497 322.634,136.251 323.111,136.080 323.005 C 135.909 322.900,135.858 323.046,135.967 323.330 C 136.077 323.614,136.522 323.936,136.957 324.045 C 137.392 324.155,137.748 324.380,137.748 324.546 C 137.748 324.711,137.354 324.748,136.871 324.627 C 136.254 324.472,136.063 324.519,136.228 324.786 C 136.364 325.006,136.257 325.166,135.974 325.166 C 135.706 325.166,135.288 325.613,135.046 326.159 C 134.804 326.705,134.485 327.152,134.335 327.152 C 134.186 327.152,134.096 327.413,134.135 327.732 C 134.173 328.050,133.959 328.865,133.659 329.542 C 133.358 330.219,133.113 330.918,133.113 331.096 C 133.113 331.273,132.941 331.524,132.730 331.654 C 132.471 331.815,132.438 331.741,132.628 331.425 C 132.868 331.027,132.827 331.027,132.340 331.421 C 132.028 331.675,131.681 331.791,131.570 331.680 C 131.317 331.428,132.355 329.801,132.769 329.801 C 132.936 329.801,133.173 329.131,133.295 328.311 C 133.418 327.492,133.663 326.821,133.840 326.821 C 134.017 326.821,134.098 326.635,134.020 326.407 C 133.942 326.180,134.228 325.438,134.655 324.758 C 135.081 324.079,135.430 323.317,135.430 323.066 C 135.430 322.815,135.790 322.079,136.230 321.431 C 136.670 320.783,136.957 320.180,136.867 320.090 C 136.665 319.888,138.446 316.148,138.903 315.816 C 139.495 315.387,139.472 315.540,138.773 316.671 M113.825 317.778 C 113.506 317.861,113.245 318.077,113.245 318.259 C 113.245 318.593,114.305 318.375,115.232 317.851 C 115.786 317.537,114.918 317.492,113.825 317.778 M319.188 318.399 C 318.819 318.843,319.037 319.185,320.716 320.799 L 322.674 322.682 320.885 320.795 C 319.362 319.189,319.159 318.832,319.522 318.394 C 319.757 318.112,319.874 317.881,319.783 317.881 C 319.692 317.881,319.424 318.114,319.188 318.399 M107.326 318.364 C 107.567 318.605,112.246 318.660,112.481 318.424 C 112.598 318.307,111.451 318.212,109.934 318.212 C 108.416 318.212,107.243 318.280,107.326 318.364 M218.874 319.205 C 218.473 319.465,218.520 319.527,219.123 319.531 C 219.532 319.534,219.868 319.387,219.868 319.205 C 219.868 318.790,219.516 318.790,218.874 319.205 M111.167 321.523 C 112.350 323.741,113.986 326.191,114.165 326.012 C 114.264 325.913,114.116 325.570,113.837 325.250 C 113.558 324.931,113.081 324.147,112.778 323.510 C 112.475 322.873,111.849 321.904,111.388 321.358 L 110.549 320.364 111.167 321.523 M113.245 320.660 C 113.245 321.105,115.012 324.277,115.659 324.993 C 115.984 325.354,116.336 325.987,116.439 326.401 C 116.543 326.814,116.737 327.152,116.870 327.152 C 117.003 327.152,117.291 327.544,117.509 328.023 C 117.727 328.502,117.986 328.813,118.084 328.715 C 118.182 328.617,117.335 326.996,116.202 325.113 C 113.788 321.100,113.245 320.283,113.245 320.660 M268.017 326.490 C 268.017 329.677,268.067 330.981,268.127 329.387 C 268.188 327.794,268.188 325.186,268.127 323.593 C 268.067 321.999,268.017 323.303,268.017 326.490 M149.775 325.854 C 149.604 326.025,149.455 325.769,149.418 325.243 C 149.362 324.449,149.398 324.413,149.712 324.949 C 149.919 325.305,149.946 325.683,149.775 325.854 M114.610 327.152 C 114.899 327.608,115.466 328.628,115.869 329.420 C 116.273 330.211,116.670 330.791,116.753 330.708 C 116.980 330.482,115.220 327.220,114.612 326.741 C 114.129 326.360,114.129 326.395,114.610 327.152 M118.714 330.337 C 119.840 331.997,119.206 332.818,117.786 331.540 C 117.169 330.985,117.147 330.988,117.266 331.623 C 117.405 332.364,120.199 332.839,120.199 332.121 C 120.199 331.468,118.721 329.144,118.305 329.142 C 118.063 329.140,118.227 329.621,118.714 330.337 M326.325 330.795 C 327.221 331.705,328.030 332.450,328.121 332.450 C 328.212 332.450,327.553 331.705,326.656 330.795 C 325.759 329.884,324.950 329.139,324.859 329.139 C 324.768 329.139,325.428 329.884,326.325 330.795 M90.232 332.119 L 89.238 332.372 90.295 332.411 C 90.876 332.433,91.444 332.301,91.556 332.119 C 91.783 331.753,91.672 331.753,90.232 332.119 " stroke="none" fill="#910fd5" fill-rule="evenodd"></path></g></svg>